<?xml version="1.0" encoding="utf-8"?>
<!-- Generator: Adobe Illustrator 23.0.1, SVG Export Plug-In . SVG Version: 6.00 Build 0)  -->
<svg version="1.1" id="Layer_1" xmlns="http://www.w3.org/2000/svg" xmlns:xlink="http://www.w3.org/1999/xlink" x="0px" y="0px"
	 viewBox="0 0 2500 867" style="enable-background:new 0 0 2500 867;" xml:space="preserve">
<style type="text/css">
	.st0{fill:#FFFFFF;}
</style>
<g id="layer1">
	<path class="st0" d="M793.7,863.6c-24.7-6.7-39.4-16.4-49.5-32.7c-18.9-31-13.8-67.5,13.4-96.8l16.4-17.6l-2.5,21.4
		c-8.8,70.4,62,79.7,130,17.6c36.9-34,62-69.6,110.3-159.3l17.6-32.3l-21.4,13c-26.4,16.8-64.6,21-81.8,9.6
		c-14.7-9.2-22.6-30.6-22.6-58.7v-23.5l-29.3,23.1c-92.7,72.1-174.8,86.4-208.8,36.1c-8.8-13-9.6-18.4-8.4-46.1
		c2.5-44,19.7-75.9,61.6-117.4c93.5-92.2,233.1-96,195.4-5c-21,50.3-70,85.1-148,105.2c-26,6.7-26,6.7-19.7,16.4
		c5.5,7.5,10.9,9.2,27.3,9.2c47,0,98.1-31.9,178.2-111.5c68.3-68.3,91.4-82.6,135-83c21-0.4,28.1,1.3,39.4,9.6l13.8,10.1l5.9-8.8
		c5.5-8.4,9.6-9.2,47.8-9.2h41.9l-28.5,53.7c-92.2,174-163.9,304-184,334.1C952.1,827.6,863.7,882.5,793.7,863.6L793.7,863.6z
		 M1039.7,509c21.8-15.1,35.6-32.7,59.1-77.1l18.9-35.2l-10.1-11.7c-8.8-10.1-11.7-10.9-26-8.4c-22.6,4.2-59.1,42.8-79.2,82.2
		c-16.4,33.1-18.9,50.3-8.4,60.8C1002.9,528.2,1016.3,524.9,1039.7,509L1039.7,509z M788.2,441.5c28.5-13.4,48.2-33.5,48.2-49.1
		c0-21.4-18.4-23.5-47-5.5C771,398.7,753,423,746.3,445.7c-2.9,9.2-2.1,10.1,9.6,7.5C763,451.9,777.7,446.5,788.2,441.5z
		 M146.8,597.4c-20.1-8.8-25.2-20.1-25.2-58.7c0.4-34,8.4-65.4,28.9-114c2.5-6.3-1.3-6.7-36.1-4.6c-44.4,2.1-78.8-3.4-99.8-16.8
		L0,394.1l16.8-2.9c70.4-12.6,91-17.6,114.9-29.3c31.9-15.9,76.3-57.9,98.9-93.9c8.4-13.8,25.2-39.8,36.5-57.4l21.4-32.7h45.3
		c25.2,0,45.7,0.8,45.7,2.1s-11.3,21.8-25.6,45.3c-33.5,56.6-109,208.4-118.6,238.6c-3.8,13-6.7,28.9-5.9,35.6
		c0.8,9.6,3.4,12.2,14.3,13c9.6,0.8,18.9-2.9,37.7-17.2c54.5-40.7,56.2-42.8,131.6-183.2l70.9-132.1l44-1.3
		c29.3-0.8,44.4,0.4,44.4,3.4c0,2.5-32.3,65.4-71.3,140.4c-78.8,149.3-85.5,168.1-67.5,186.1c16.8,16.8,46.5,4.2,92.2-39.4
		c85.9-81.8,139.6-202.1,140.4-316.5c0.4-41.9-0.8-51.1-9.2-70c-12.6-27.3-24.3-38.2-51.6-47.4L584,27.7l18-10.5
		c58.3-34,115.3-16.4,146.3,45.3c13.8,27.7,14.7,31.4,15.9,79.7c1.3,42.8,0,56.2-9.2,91.4c-21,82.6-73.8,170.2-145.1,241.9
		c-45.7,45.7-89.7,77.6-139.6,100.2c-89.3,41.5-142.1,31-152.2-29.8l-2.5-15.1L296,545.4c-31,23.9-91.8,51.6-118.2,54.1
		C165.2,600.4,151.4,599.5,146.8,597.4L146.8,597.4z M2312.2,598.3c-42.3-7.1-67.1-23.9-80.5-54.9l-8-18l-17.6,13.4
		c-59.1,44-90.6,57-111.1,45.3c-10.1-5.5-11.3-8.8-11.3-27.3c0.4-18,5.5-31.4,35.6-91c45.3-89.3,42.3-95.2-25.2-48.6
		c-21.8,14.7-25.2,19.7-62,89.3l-39.4,73.8h-83.8l17.2-31.4c9.6-17.2,16.4-31.4,14.7-31.4c-1.3,0-17.6,11.3-35.6,25.2
		c-36.1,26.8-62.9,43.6-78.4,48.2c-20.5,5.9-42.8-12.6-42.8-35.6c0-10.9-0.8-10.9-23.9,6.7c-11.3,8.8-27.7,18.9-36.9,23.1
		c-21,9.6-55.8,10.5-68.8,1.3c-18.9-13.4-26.4-49.1-17.6-80.5c5-16.8,4.2-15.9-35.2,18c-57.9,50.3-97.3,70.9-117.8,61.2
		c-25.2-11.3-21-33.5,21.8-118.2c17.2-34.8,31-66.2,30.2-70c-2.1-10.5-14.7-6.7-45.7,13.8c-28.1,18.4-28.1,18.4-66.7,91
		c-21.4,39.8-40.2,74.2-41.9,75.9c-1.3,1.7-21.8,2.5-45.3,2.1l-42.3-1.3l44-83.4c42.3-79.7,51.1-102.3,41.5-106.1
		c-4.2-1.3-42.8,21-64.6,36.9c-5,3.8-26.8,39.8-48.2,79.7l-39,72.9l-42.3,1.3l-41.9,1.3l60.8-114.5c33.5-62.9,63.7-118.6,66.7-123.7
		c5.5-8.8,9.2-9.6,45.7-9.6c21.8,0,39.8,0.8,39.8,2.1s-4.6,11.3-10.1,22.6l-10.5,20.1l43.2-22.2c50.3-25.6,76.7-31.4,93.1-20.5
		c9.6,6.3,10.5,9.2,9.2,27.7c-0.4,11.3-0.4,20.5,0.4,20.5s10.5-5.5,21-12.6c26-16.4,70.4-36.5,89.7-39.8c22.2-4.2,34.8,0,40.7,14.3
		c6.7,16.4-0.8,41.9-29.3,103.1c-11.7,24.7-20.5,45.7-19.7,46.5c2.5,2.5,68.8-50.7,105.6-85.1c41.1-38.6,69.6-58.7,97.7-69.6
		c20.1-8,57.4-9.2,74.6-2.9c7.5,2.9,12.6,2.9,16.4,0c3.4-2.5,21.8-4.2,45.3-3.4l39.8,1.3l-30.2,54.9
		c-31.4,57.4-56.2,113.2-51.6,117.4c3.8,3.8,55.8-34.8,86.8-64.1c20.1-18.9,33.1-36.5,50.3-67.9l23.1-42.3h41.1
		c22.2,0,40.7,0.8,40.7,1.7c0,0.8-4.6,10.1-10.5,19.7c-5.9,10.1-10.5,19.7-10.5,21.4c0,1.7,13-4.6,28.9-13.4
		c31.4-18,73.8-33.5,90.6-33.5c5.9,0,14.7,4.2,19.3,8.8c15.1,15.1,8.8,41.9-27.3,115.7c-17.2,35.2-29.8,64.1-28.1,64.1
		c5.5,0,30.2-21,57-48.6c27.7-28.1,52-38.2,80.5-32.7l14.7,2.9l-16.8,17.2c-21,21.8-26.4,32.3-26.8,52.4
		c-0.4,42.3,43.2,70,73.8,46.1c14.3-11.3,14.3-29.8,0.4-71.3c-24.7-72.5-7.1-130.8,47-153.4c40.7-16.8,91.8,8.8,83.4,41.9
		c-3.4,13.4-15.9,22.2-37.7,26.4c-15.5,2.5-15.9,2.5-12.6-7.1c2.1-5.5,3.4-16.8,3.8-24.7c0-13-1.3-14.7-11.7-15.9
		c-13.8-1.7-28.1,9.2-28.1,21.4c0,4.2,8.4,23.5,18.9,42.3c44.9,82.2,37.7,137.5-21,167.3C2386.8,593.7,2335.2,602.5,2312.2,598.3
		L2312.2,598.3z M1764.2,512.7c10.9-7.1,25.2-19.7,31.9-27.7c18.4-22.2,51.1-85.5,48.6-93.9c-4.2-13-13.8-17.6-30.2-14.3
		c-44.4,8.4-115.7,127-85.9,144.2C1739.5,527.8,1743.2,527,1764.2,512.7z"/>
</g>
</svg>
