<?xml version="1.0" encoding="utf-8"?>
<!-- Generator: Adobe Illustrator 23.0.1, SVG Export Plug-In . SVG Version: 6.00 Build 0)  -->
<svg version="1.1" id="Capa_1" xmlns="http://www.w3.org/2000/svg" xmlns:xlink="http://www.w3.org/1999/xlink" x="0px" y="0px"
	 viewBox="0 0 800 800" style="enable-background:new 0 0 800 800;" xml:space="preserve">
<style type="text/css">
	.st0{fill:#FFFFFF;}
</style>
<g>
	<path class="st0" d="M680,160.9c-35-35-81.3-54.1-130.7-54.1S453.5,126,418.5,161l-18.3,18.3l-18.6-18.6c-35-35-81.6-54.4-131-54.4
		c-49.3,0-95.7,19.3-130.6,54.1c-35,35-54.2,81.4-54.1,130.9c0,49.4,19.4,95.7,54.4,130.7l266,266c3.7,3.7,8.6,5.7,13.5,5.7
		s9.8-1.8,13.5-5.5l266.5-265.5c35-35,54.2-81.4,54.2-130.9C734.1,242.3,715,195.9,680,160.9z"/>
</g>
</svg>
