<?xml version="1.0" encoding="utf-8"?>
<!-- Generator: Adobe Illustrator 23.0.1, SVG Export Plug-In . SVG Version: 6.00 Build 0)  -->
<svg version="1.1" xmlns="http://www.w3.org/2000/svg" xmlns:xlink="http://www.w3.org/1999/xlink" x="0px" y="0px"
	 viewBox="0 0 40 40" style="enable-background:new 0 0 40 40;" xml:space="preserve">
<style type="text/css">
	.st0{display:none;}
	.st1{display:inline;}
	.st2{fill:#FFFFFF;}
	.st3{display:inline;fill:#FFFFFF;}
</style>
<g id="Layer_2" class="st0">
	<rect class="st1" width="40" height="40"/>
</g>
<g id="Layer_1" class="st0">
</g>
<g id="Layer_3" class="st0">
	<g class="st1">
		<ellipse transform="matrix(0.9732 -0.2298 0.2298 0.9732 -4.0253 5.4286)" class="st2" cx="21.3" cy="20" rx="5.28" ry="5.28"/>
		<path class="st2" d="M34.05,1.98H5.95c-2.19,0-3.96,1.77-3.96,3.96v28.11c0,2.19,1.77,3.96,3.96,3.96h28.11
			c2.19,0,3.96-1.77,3.96-3.96V5.95C38.02,3.76,36.24,1.98,34.05,1.98z M21.3,28.5h-8.62c-1.58,0-2.37-1.91-1.25-3.02l2.08-2.08
			c-0.01-0.03-0.03-0.07-0.05-0.1l-2.03-2.03c-0.05-0.05-0.07-0.11-0.12-0.16c-0.01-0.02-0.02-0.03-0.04-0.05
			c-0.1-0.13-0.17-0.26-0.23-0.39c0-0.01,0-0.02-0.01-0.02c-0.05-0.14-0.09-0.28-0.11-0.42c-0.01-0.07,0-0.15-0.01-0.22
			c0-0.07,0-0.15,0.01-0.22c0.02-0.14,0.06-0.28,0.11-0.42c0-0.01,0-0.02,0.01-0.02c0.06-0.14,0.13-0.27,0.23-0.39
			c0.01-0.02,0.02-0.03,0.03-0.05c0.04-0.05,0.07-0.11,0.12-0.16l2.03-2.03c0.01-0.03,0.03-0.06,0.04-0.09l-2.08-2.08
			c-1.11-1.11-0.33-3.02,1.25-3.02h8.33c0.1,0,0.19-0.01,0.29-0.01c4.69,0,8.5,3.81,8.5,8.5C29.8,24.69,25.99,28.5,21.3,28.5z"/>
	</g>
</g>
<g id="Layer_10" class="st0">
</g>
<g id="Layer_4" class="st0">
	<path class="st3" d="M34.05,1.98H5.95c-2.19,0-3.96,1.77-3.96,3.96v28.11c0,2.19,1.77,3.96,3.96,3.96h28.11
		c2.19,0,3.96-1.77,3.96-3.96V5.95C38.02,3.76,36.24,1.98,34.05,1.98z M15.38,11.12h6.03c1,0,1.82,0.81,1.82,1.82v8.78l4.95,2.14
		c0.67,0.29,1.1,0.94,1.1,1.67v0.6H13.56V12.93C13.56,11.93,14.38,11.12,15.38,11.12z M27.46,29.88H15.38c-1,0-1.82-0.81-1.82-1.82
		v-0.33h15.71v0.33C29.27,29.07,28.46,29.88,27.46,29.88z"/>
</g>
<g id="Layer_7" class="st0">
	<g class="st1">
		<path class="st2" d="M30.18,24.89l-4.95-2.14V10.97c0-1-0.81-1.82-1.82-1.82h-6.03c-1,0-1.82,0.81-1.82,1.82v16.19h15.71v-0.6
			C31.27,25.83,30.84,25.18,30.18,24.89z M20.27,15.51c-0.98,0-1.77-0.79-1.77-1.77c0-0.98,0.79-1.77,1.77-1.77s1.77,0.79,1.77,1.77
			C22.03,14.71,21.24,15.51,20.27,15.51z"/>
		<path class="st2" d="M15.56,29.1c0,1,0.81,1.82,1.82,1.82h12.08c1,0,1.82-0.81,1.82-1.82v-0.33H15.56V29.1z"/>
	</g>
</g>
<g id="Layer_9">
	<path class="st2" d="M34.05,1.98H5.95c-2.19,0-3.96,1.77-3.96,3.96v28.11c0,2.19,1.77,3.96,3.96,3.96h28.11
		c2.19,0,3.96-1.77,3.96-3.96V5.95C38.02,3.76,36.24,1.98,34.05,1.98z M17.66,10.1l2.42-2.42l2.42,2.42v11.23h-4.84V10.1z
		 M22.5,32.32h-2.42h-2.42v-5.77h4.84V32.32z M25.87,24.97H14.13v-2.05h11.73V24.97z"/>
</g>
<g id="Layer_5" class="st0">
	<g class="st1">
		<path class="st2" d="M34.05,1.98H5.95c-2.19,0-3.96,1.77-3.96,3.96v28.11c0,2.19,1.77,3.96,3.96,3.96h28.11
			c2.19,0,3.96-1.77,3.96-3.96V5.95C38.02,3.76,36.24,1.98,34.05,1.98z M26.41,31H13.59v-1.95h12.82V31z M15.06,16.21l0.07-4.06
			h4.79h0.18h4.79l0.07,4.06l-3.36,3.36v0.85l3.36,3.36l-0.07,4.06h-4.79h-0.18h-4.79l-0.07-4.06l3.36-3.36v-0.85L15.06,16.21z
			 M26.41,10.95H13.59V9h12.82V10.95z"/>
	</g>
</g>
<g id="Layer_6" class="st0">
	<g class="st1">
		<path class="st2" d="M26.41,31H13.59v-1.95h12.82V31z M15.06,16.21l0.07-4.06h4.79h0.18h4.79l0.07,4.06l-3.36,3.36v0.85l3.36,3.36
			l-0.07,4.06h-4.79h-0.18h-4.79l-0.07-4.06l3.36-3.36v-0.85L15.06,16.21z M26.41,10.95H13.59V9h12.82V10.95z"/>
	</g>
</g>
<g id="Layer_8" class="st0">
	<rect x="13.59" y="9" class="st3" width="12.82" height="7.62"/>
	<path class="st3" d="M13.59,18.4v12.63h12.82V18.4H13.59z M23.25,26.91l-1.05,1.05L20,25.77l-2.19,2.19l-1.05-1.05l2.19-2.19
		l-2.19-2.19l1.05-1.05L20,23.66l2.19-2.19l1.05,1.05l-2.19,2.19L23.25,26.91z"/>
</g>
</svg>
