<?xml version="1.0" encoding="utf-8"?>
<!-- Generator: Adobe Illustrator 23.0.1, SVG Export Plug-In . SVG Version: 6.00 Build 0)  -->
<svg version="1.1" xmlns="http://www.w3.org/2000/svg" xmlns:xlink="http://www.w3.org/1999/xlink" x="0px" y="0px"
	 viewBox="0 0 40 40" style="enable-background:new 0 0 40 40;" xml:space="preserve">
<style type="text/css">
	.st0{display:none;}
	.st1{display:inline;fill:#FFFFFF;}
	.st2{display:inline;}
	.st3{fill:#FFFFFF;}
</style>
<g id="Layer_3" class="st0">
	<path class="st1" d="M29.6,23.6H12.1V5h13.1v7.9l4.4,3.4V23.6z M14.1,21.6h13.5v-4.3l-4.4-3.4V7h-9.1V21.6z"/>
	<g class="st2">
		<path class="st3" d="M6.5,34.7v-5.6h3.1c1.1,0,1.7,0.7,1.7,1.4c0,0.7-0.4,1.1-1,1.3c0.6,0.1,1.1,0.7,1.1,1.4
			c0,0.8-0.6,1.5-1.8,1.5H6.5z M10,30.8c0-0.3-0.2-0.5-0.6-0.5H7.8v1h1.6C9.8,31.3,10,31.1,10,30.8z M10.1,33c0-0.3-0.2-0.6-0.6-0.6
			H7.8v1.1h1.6C9.9,33.5,10.1,33.3,10.1,33z"/>
		<path class="st3" d="M12.2,31.9c0-1.7,1.2-2.9,3-2.9c1.8,0,3,1.2,3,2.9c0,1.7-1.2,2.9-3,2.9C13.4,34.8,12.2,33.6,12.2,31.9z
			 M16.8,31.9c0-1-0.6-1.7-1.6-1.7c-1,0-1.6,0.8-1.6,1.7c0,1,0.6,1.7,1.6,1.7C16.2,33.6,16.8,32.9,16.8,31.9z"/>
		<path class="st3" d="M18.9,31.9c0-1.7,1.2-2.9,3-2.9c1.8,0,3,1.2,3,2.9c0,1.7-1.2,2.9-3,2.9C20.1,34.8,18.9,33.6,18.9,31.9z
			 M23.5,31.9c0-1-0.6-1.7-1.6-1.7c-1,0-1.6,0.8-1.6,1.7c0,1,0.6,1.7,1.6,1.7C22.9,33.6,23.5,32.9,23.5,31.9z"/>
		<path class="st3" d="M26.7,34.7v-4.4h-1.6v-1.2h4.5v1.2h-1.6v4.4H26.7z"/>
		<path class="st3" d="M30.1,34l0.6-1c0.4,0.4,1.1,0.7,1.9,0.7c0.7,0,1-0.3,1-0.6c0-0.9-3.3-0.2-3.3-2.4c0-1,0.9-1.7,2.3-1.7
			c1,0,1.7,0.3,2.3,0.8l-0.6,1c-0.4-0.4-1.1-0.6-1.7-0.6c-0.5,0-0.9,0.2-0.9,0.6c0,0.8,3.3,0.2,3.3,2.4c0,1.1-0.8,1.8-2.4,1.8
			C31.4,34.8,30.6,34.5,30.1,34z"/>
	</g>
</g>
<g id="Layer_2" class="st0">
	<g id="Layer_3_1_" class="st2">
		<g>
			
				<rect x="10" y="13.5" transform="matrix(0.7071 -0.7071 0.7071 0.7071 -4.4514 19.1164)" class="st3" width="21.6" height="2.8"/>
			
				<rect x="19.5" y="4.1" transform="matrix(0.7071 -0.7071 0.7071 0.7071 -4.4515 19.1167)" class="st3" width="2.8" height="21.6"/>
		</g>
	</g>
	<g class="st2">
		<path d="M3.5,34.8v-5.7h3.2c1.2,0,1.7,0.7,1.7,1.5c0,0.7-0.4,1.1-1,1.3C8,32,8.5,32.6,8.5,33.2c0,0.9-0.6,1.5-1.8,1.5H3.5z
			 M7,30.8c0-0.3-0.2-0.5-0.6-0.5H4.8v1h1.6C6.8,31.3,7,31.1,7,30.8z M7.1,33.1c0-0.3-0.2-0.6-0.6-0.6H4.8v1.1h1.6
			C6.9,33.6,7.1,33.4,7.1,33.1z"/>
		<path d="M9.5,34.8v-5.7h1.4v4.5h2.5v1.2H9.5z"/>
		<path d="M14,32c0-1.7,1.2-3,3-3c1.8,0,3.1,1.2,3.1,3c0,1.7-1.3,3-3.1,3C15.3,34.9,14,33.7,14,32z M18.7,32c0-1-0.7-1.8-1.7-1.8
			S15.4,31,15.4,32c0,1,0.6,1.8,1.7,1.8S18.7,32.9,18.7,32z"/>
		<path d="M20.8,32c0-1.8,1.3-3,3.1-3c1.2,0,2,0.7,2.4,1.4L25.2,31c-0.2-0.5-0.7-0.8-1.3-0.8c-1,0-1.7,0.8-1.7,1.8
			c0,1,0.7,1.8,1.7,1.8c0.6,0,1.1-0.3,1.3-0.8l1.1,0.5c-0.4,0.8-1.2,1.5-2.5,1.5C22.1,34.9,20.8,33.7,20.8,32z"/>
		<path d="M30.7,34.8l-1.8-2.2L28.5,33v1.7h-1.4v-5.7h1.4v2.4l2-2.4h1.7l-2.4,2.7l2.5,3H30.7z"/>
		<path d="M32.5,34.1l0.6-1.1c0.4,0.4,1.1,0.7,1.9,0.7c0.7,0,1-0.3,1-0.6c0-0.9-3.3-0.2-3.3-2.4c0-1,0.9-1.8,2.3-1.8
			c1,0,1.7,0.3,2.3,0.8l-0.6,1c-0.4-0.4-1.1-0.6-1.7-0.6c-0.5,0-0.9,0.2-0.9,0.6c0,0.8,3.3,0.2,3.3,2.4c0,1.1-0.9,1.8-2.4,1.8
			C33.9,34.9,33,34.5,32.5,34.1z"/>
	</g>
</g>
<g id="Layer_4">
	<path class="st3" d="M20.8,25.6c-5.7,0-10.3-4.6-10.3-10.3S15.1,5,20.8,5s10.3,4.6,10.3,10.3S26.5,25.6,20.8,25.6z M20.8,7
		c-4.6,0-8.3,3.7-8.3,8.3s3.7,8.3,8.3,8.3s8.3-3.7,8.3-8.3S25.4,7,20.8,7z"/>
	<path class="st3" d="M26.6,16.3h-6.8v-7c0-0.6,0.4-1,1-1s1,0.4,1,1v5h4.8c0.6,0,1,0.4,1,1S27.2,16.3,26.6,16.3z"/>
	<g>
		<path class="st3" d="M6.9,34.8v-4.5H5.3v-1.2h4.6v1.2H8.3v4.5H6.9z"/>
		<path class="st3" d="M14.1,34.8L13,32.8h-0.9v1.9h-1.4v-5.7h2.9c1.3,0,2,0.8,2,1.9c0,1-0.6,1.6-1.3,1.7l1.4,2.1H14.1z M14.2,31
			c0-0.4-0.3-0.7-0.8-0.7h-1.3v1.4h1.3C14,31.7,14.2,31.4,14.2,31z"/>
		<path class="st3" d="M19.9,29.1l2.3,5.7h-1.5l-0.4-0.9h-2.5l-0.4,0.9H16l2.3-5.7H19.9z M19.1,30.5l-0.8,2.2h1.7L19.1,30.5z"/>
		<path class="st3" d="M26.8,34.8l-2.6-3.6v3.6h-1.4v-5.7h1.5l2.6,3.4v-3.4h1.4v5.7H26.8z"/>
		<path class="st3" d="M29.2,32c0-1.7,1.2-3,3-3c1.8,0,3.1,1.2,3.1,3c0,0.8-0.3,1.5-0.8,2l0.4,0.5l-0.8,0.7l-0.5-0.5
			c-0.4,0.2-0.9,0.3-1.4,0.3C30.4,34.9,29.2,33.7,29.2,32z M32.8,33.6L32.3,33l0.8-0.7l0.6,0.7c0.2-0.3,0.3-0.6,0.3-1
			c0-1-0.7-1.8-1.7-1.8S30.6,31,30.6,32c0,1,0.7,1.8,1.7,1.8C32.5,33.7,32.7,33.7,32.8,33.6z"/>
	</g>
</g>
</svg>
