<?xml version="1.0" encoding="utf-8"?>
<!-- Generator: Adobe Illustrator 23.0.1, SVG Export Plug-In . SVG Version: 6.00 Build 0)  -->
<svg version="1.1" xmlns="http://www.w3.org/2000/svg" xmlns:xlink="http://www.w3.org/1999/xlink" x="0px" y="0px"
	 viewBox="0 0 40 40" style="enable-background:new 0 0 40 40;" xml:space="preserve">
<style type="text/css">
	.st0{display:none;}
	.st1{display:inline;}
	.st2{fill:#FFFFFF;}
</style>
<g id="Layer_2" class="st0">
	<rect class="st1" width="40" height="40"/>
</g>
<g id="Layer_1" class="st0">
</g>
<g id="Layer_3">
	<g>
		<ellipse transform="matrix(0.9732 -0.2298 0.2298 0.9732 -4.0253 5.4286)" class="st2" cx="21.3" cy="20" rx="5.28" ry="5.28"/>
		<path class="st2" d="M34.05,1.98H5.95c-2.19,0-3.96,1.77-3.96,3.96v28.11c0,2.19,1.77,3.96,3.96,3.96h28.11
			c2.19,0,3.96-1.77,3.96-3.96V5.95C38.02,3.76,36.24,1.98,34.05,1.98z M21.3,28.5h-8.62c-1.58,0-2.37-1.91-1.25-3.02l2.08-2.08
			c-0.01-0.03-0.03-0.07-0.05-0.1l-2.03-2.03c-0.05-0.05-0.07-0.11-0.12-0.16c-0.01-0.02-0.02-0.03-0.04-0.05
			c-0.1-0.13-0.17-0.26-0.23-0.39c0-0.01,0-0.02-0.01-0.02c-0.05-0.14-0.09-0.28-0.11-0.42c-0.01-0.07,0-0.15-0.01-0.22
			c0-0.07,0-0.15,0.01-0.22c0.02-0.14,0.06-0.28,0.11-0.42c0-0.01,0-0.02,0.01-0.02c0.06-0.14,0.13-0.27,0.23-0.39
			c0.01-0.02,0.02-0.03,0.03-0.05c0.04-0.05,0.07-0.11,0.12-0.16l2.03-2.03c0.01-0.03,0.03-0.06,0.04-0.09l-2.08-2.08
			c-1.11-1.11-0.33-3.02,1.25-3.02h8.33c0.1,0,0.19-0.01,0.29-0.01c4.69,0,8.5,3.81,8.5,8.5C29.8,24.69,25.99,28.5,21.3,28.5z"/>
	</g>
</g>
</svg>
