<?xml version="1.0" encoding="utf-8"?>
<!-- Generator: Adobe Illustrator 23.0.1, SVG Export Plug-In . SVG Version: 6.00 Build 0)  -->
<svg version="1.1" id="Layer_3" xmlns="http://www.w3.org/2000/svg" xmlns:xlink="http://www.w3.org/1999/xlink" x="0px" y="0px"
	 viewBox="0 0 40 40" style="enable-background:new 0 0 40 40;" xml:space="preserve">
<style type="text/css">
	.st0{fill:#FFFFFF;}
</style>
<path class="st0" d="M29.6,23.6H12.1V5h13.1v7.9l4.4,3.4V23.6z M14.1,21.6h13.5v-4.3l-4.4-3.4V7h-9.1V21.6z"/>
<g>
	<path class="st0" d="M6.5,34.7v-5.6h3.1c1.1,0,1.7,0.7,1.7,1.4c0,0.7-0.4,1.1-1,1.3c0.6,0.1,1.1,0.7,1.1,1.4c0,0.8-0.6,1.5-1.8,1.5
		H6.5z M10,30.8c0-0.3-0.2-0.5-0.6-0.5H7.8v1h1.6C9.8,31.3,10,31.1,10,30.8z M10.1,33c0-0.3-0.2-0.6-0.6-0.6H7.8v1.1h1.6
		C9.9,33.5,10.1,33.3,10.1,33z"/>
	<path class="st0" d="M12.2,31.9c0-1.7,1.2-2.9,3-2.9c1.8,0,3,1.2,3,2.9c0,1.7-1.2,2.9-3,2.9C13.4,34.8,12.2,33.6,12.2,31.9z
		 M16.8,31.9c0-1-0.6-1.7-1.6-1.7c-1,0-1.6,0.8-1.6,1.7c0,1,0.6,1.7,1.6,1.7C16.2,33.6,16.8,32.9,16.8,31.9z"/>
	<path class="st0" d="M18.9,31.9c0-1.7,1.2-2.9,3-2.9c1.8,0,3,1.2,3,2.9c0,1.7-1.2,2.9-3,2.9C20.1,34.8,18.9,33.6,18.9,31.9z
		 M23.5,31.9c0-1-0.6-1.7-1.6-1.7c-1,0-1.6,0.8-1.6,1.7c0,1,0.6,1.7,1.6,1.7C22.9,33.6,23.5,32.9,23.5,31.9z"/>
	<path class="st0" d="M26.7,34.7v-4.4h-1.6v-1.2h4.5v1.2h-1.6v4.4H26.7z"/>
	<path class="st0" d="M30.1,34l0.6-1c0.4,0.4,1.1,0.7,1.9,0.7c0.7,0,1-0.3,1-0.6c0-0.9-3.3-0.2-3.3-2.4c0-1,0.9-1.7,2.3-1.7
		c1,0,1.7,0.3,2.3,0.8l-0.6,1c-0.4-0.4-1.1-0.6-1.7-0.6c-0.5,0-0.9,0.2-0.9,0.6c0,0.8,3.3,0.2,3.3,2.4c0,1.1-0.8,1.8-2.4,1.8
		C31.4,34.8,30.6,34.5,30.1,34z"/>
</g>
</svg>
