<?xml version="1.0" encoding="utf-8"?>
<!-- Generator: Adobe Illustrator 23.0.1, SVG Export Plug-In . SVG Version: 6.00 Build 0)  -->
<svg version="1.1" id="Layer_1" xmlns="http://www.w3.org/2000/svg" xmlns:xlink="http://www.w3.org/1999/xlink" x="0px" y="0px"
	 viewBox="0 0 430 101" style="enable-background:new 0 0 430 101;" xml:space="preserve">
<style type="text/css">
	.st0{fill:#FFFFFF;}
</style>
<g>
	<path class="st0" d="M8.3,7.6h58.9l18.6,16.2v42.1L67.2,84.4H43.1V93H8.3V7.6z M43.1,44.5v5H51v-5H43.1z"/>
	<path class="st0" d="M111,7.6h39.9L170,23.7v23l-11.7,9.4H170V93h-58.9L92.5,76.8V24.1L111,7.6z M127.3,56.1h7.9V44.6h-7.9V56.1z"
		/>
	<path class="st0" d="M244.4,50.4l9.9,9.7V93h-35.1V81.2l-7.8-6.9V93h-34.8V7.6h58.9l18.6,16.2v15.4L244.4,50.4z M211.5,44.5v5h7.9
		v-5H211.5z"/>
	<path class="st0" d="M261,23.8l18.6-16.2h58.9v36.9h-42.7V56h42.7v37h-59.1L261,76.5V23.8z"/>
	<path class="st0" d="M422.7,93h-34.8V68.3H380V93h-34.8V7.6H380v23.9h7.9V7.6h34.8V93z"/>
</g>
</svg>
