<?xml version="1.0" encoding="UTF-8" standalone="no"?>
<!DOCTYPE svg PUBLIC "-//W3C//DTD SVG 1.1//EN" "http://www.w3.org/Graphics/SVG/1.1/DTD/svg11.dtd">
<svg width="100%" height="100%" viewBox="0 0 142 40" version="1.1" xmlns="http://www.w3.org/2000/svg" xmlns:xlink="http://www.w3.org/1999/xlink" xml:space="preserve" xmlns:serif="http://www.serif.com/" style="fill-rule:evenodd;clip-rule:evenodd;stroke-linejoin:round;stroke-miterlimit:2;">
    <g transform="matrix(1.00208,0,0,1.00208,-15.0333,-15.9104)">
        <path d="M49.164,39.54L49.164,39.285C48.8,33.722 48.727,28.449 49.018,22.304L49.018,22.049L48.8,22.085L43.454,22.958L43.236,22.994L43.236,23.213C43.491,26.994 43.527,31.176 43.527,31.685C43.527,33.031 43.491,33.795 43.454,34.776C42.691,35.358 41.927,35.867 41.054,35.867C39.127,35.867 38.727,34.485 38.727,31.504C38.727,30.376 38.618,27.758 38.873,22.34L38.873,22.085L38.618,22.122L33.345,22.994L33.054,23.067L33.054,23.322C33.382,28.958 33.273,33.031 33.273,33.504C33.236,35.94 33.6,37.104 34.545,38.231C35.6,39.431 37.127,39.94 38.764,39.94C41.054,39.94 42.364,38.885 43.527,38.013L43.491,39.576L49.164,39.54Z" style="fill:white;"/>
    </g>
    <g transform="matrix(1.00208,0,0,1.00208,-15.0333,-15.9104)">
        <path d="M155.709,39.54L155.709,39.285C155.346,33.722 155.273,28.449 155.6,22.304L155.6,22.049L155.382,22.085L150.036,22.958L149.818,22.994L149.818,23.213C150.073,26.994 150.109,31.176 150.109,31.685C150.109,33.031 150.073,33.795 150.036,34.776C149.273,35.358 148.509,35.867 147.636,35.867C145.709,35.867 145.309,34.485 145.309,31.504C145.309,30.376 145.2,27.758 145.455,22.34L145.455,22.085L145.236,22.122L139.964,22.994L139.636,23.067L139.636,23.322C139.964,28.958 139.855,33.031 139.855,33.504C139.818,35.94 140.182,37.104 141.127,38.231C142.182,39.431 143.709,39.94 145.346,39.94C147.636,39.94 148.946,38.885 150.109,38.013L150.073,39.576L155.709,39.54Z" style="fill:white;"/>
    </g>
    <g transform="matrix(1.00208,0,0,1.00208,-15.0333,-15.9104)">
        <path d="M92.945,39.322C92.727,35.613 92.727,33.104 92.727,30.74C92.727,28.304 94.109,26.376 96.254,26.376C97.091,26.376 97.491,26.449 98.218,26.704L98.618,26.849L97.454,22.522C97.418,22.413 97.345,22.34 97.2,22.304C96.945,22.195 96.582,22.122 96.109,22.122C94.8,22.122 93.491,22.958 92.618,25.249L92.691,22.376L92.691,22.158L87.018,23.213L87.018,23.358C87.309,27.831 87.345,33.358 87.127,39.322L87.127,39.504L92.909,39.504L92.945,39.322Z" style="fill:white;"/>
    </g>
    <g transform="matrix(1.00208,0,0,1.00208,-15.0333,-15.9104)">
        <path d="M16,38.631L16,38.449L16.255,33.904L16.291,33.613L16.618,33.904C17.564,34.667 19.236,35.904 22.073,35.904C24.873,35.904 25.927,34.449 25.927,33.249C25.927,31.54 24.218,30.74 22,29.831L20.946,29.358C19.127,28.413 16.145,26.995 16.145,23.14C16.145,20.013 18.218,16.304 24.255,16.304C27.346,16.304 28.8,16.922 30.182,17.504L30.364,17.576L30.364,17.758L30.073,22.231L29.818,22.049C28.618,21.249 27.2,20.267 24.764,20.267C22.655,20.267 21.746,21.504 21.746,22.522C21.746,23.976 23.127,24.558 25.818,25.686L26.655,26.013C28.218,26.704 31.527,28.231 31.527,32.486C31.527,35.213 30.364,37.649 27.673,38.958C25.746,39.867 23.309,39.94 22.364,39.94C19.964,39.94 18.073,39.358 17.309,39.14C16.946,39.031 16.582,38.886 16.218,38.74L16,38.631Z" style="fill:white;"/>
    </g>
    <g transform="matrix(1.00208,0,0,1.00208,-15.0333,-15.9104)">
        <path d="M56.945,36.122C58.073,36.086 59.345,36.013 60.364,35.322C61.636,34.413 62.255,32.74 62.255,30.886C62.255,29.795 62.109,28.158 61.091,27.067C60.291,26.158 59.309,26.122 58.836,26.122C58.036,26.122 57.6,26.34 56.909,26.776C56.873,29.867 56.836,33.213 56.945,36.122ZM51.236,47.322L51.236,47.14C51.6,41.067 51.564,29.031 51.164,23.286L51.164,23.067L56.909,22.122L56.8,23.686C57.709,23.067 58.945,22.195 61.164,22.195C64.764,22.195 67.855,25.286 67.855,30.376C67.855,32.558 67.164,35.286 65.127,37.213C62.545,39.649 59.273,39.686 56.909,39.686C56.909,42.995 57.091,47.358 57.091,47.358L51.236,47.322Z" style="fill:white;"/>
    </g>
    <g transform="matrix(1.00208,0,0,1.00208,-15.0333,-15.9104)">
        <path d="M79.964,28.995C79.964,28.267 79.927,27.395 79.491,26.704C79.127,26.122 78.509,25.576 77.455,25.576C75.818,25.576 74.618,26.813 74.618,28.995L79.964,28.995ZM74.618,32.376C74.618,32.849 74.836,33.758 75.309,34.413C76.073,35.576 77.382,36.195 79.309,36.195C81.636,36.195 83.055,35.504 84.254,34.849L84.546,34.704L84.546,34.995L84.327,38.522C84.327,38.631 84.254,38.74 84.145,38.813C82.545,39.467 81.273,39.976 78.618,39.976C76.291,39.976 71.964,39.576 70.073,35.249C69.564,34.122 69.309,32.558 69.309,31.031C69.309,25.467 72.655,22.158 77.673,22.158C78.4,22.158 79.164,22.231 79.964,22.449C81.055,22.704 83.527,23.467 84.655,27.249C85.091,28.849 85.164,30.704 85.164,32.158L85.164,32.34L74.618,32.376Z" style="fill:white;"/>
    </g>
    <g transform="matrix(1.00208,0,0,1.00208,-15.0333,-15.9104)">
        <path d="M116.909,16.158L116.836,16.376C114.182,25.031 112.764,30.267 110.618,39.322L110.545,39.54L103.345,39.54C103.2,39.54 103.127,39.431 103.091,39.358C100.945,30.449 99.709,25.504 97.236,17.286L103.2,16.158L103.236,16.34C104.691,24.595 105.164,26.558 107.127,34.376C108.982,26.813 109.6,24.558 111.018,17.249L116.909,16.158Z" style="fill:white;"/>
    </g>
    <g transform="matrix(1.00208,0,0,1.00208,-15.0333,-15.9104)">
        <path d="M124.255,31.104C122.073,31.395 119.527,31.795 119.527,33.904C119.527,35.249 120.473,35.867 121.636,35.867C122.691,35.867 123.564,35.431 124.218,35.031C124.255,33.649 124.255,32.522 124.255,31.104ZM116.255,23.176C118.073,22.631 119.927,22.122 122.691,22.122C126.8,22.122 128.073,23.395 128.727,24.449C129.564,25.795 129.527,27.031 129.491,29.94C129.491,29.94 129.455,34.195 129.746,39.358L129.746,39.576L124.255,39.576L124.255,38.231C123.564,38.776 122.182,39.94 119.782,39.94C116.618,39.94 114.182,37.758 114.182,34.304C114.182,32.849 114.8,30.958 116.582,29.867C118.509,28.667 120.291,28.304 124.146,27.795C124.146,27.322 124.036,26.704 123.746,26.376C123.346,25.976 122.836,25.758 121.673,25.758C119.527,25.758 117.273,26.595 116.146,27.031L115.855,27.14L116.073,23.213L116.255,23.176Z" style="fill:white;"/>
    </g>
    <g transform="matrix(1.00208,0,0,1.00208,-15.0333,-15.9104)">
        <path d="M131.927,39.54L131.927,39.322C132.146,32.74 132.146,23.031 131.673,17.286L131.673,17.067L137.491,16.158L137.491,16.413C137.236,24.195 137.273,32.049 137.636,39.322L137.636,39.54L131.927,39.54Z" style="fill:white;"/>
    </g>
    <g transform="matrix(1.00208,0,0,1.00208,-15.0333,-15.9104)">
        <path d="M65.454,53.686L64,51.14L62.836,51.14L62.836,53.686L61.927,53.686L61.927,47.431L64.254,47.431C65.454,47.431 66.218,48.158 66.218,49.213C66.218,50.086 65.709,50.704 64.909,50.958L66.473,53.686L65.454,53.686ZM62.836,50.34L64.109,50.34C64.836,50.34 65.273,49.904 65.273,49.286C65.273,48.631 64.836,48.267 64.109,48.267L62.836,48.267L62.836,50.34Z" style="fill:white;"/>
    </g>
    <g transform="matrix(1.00208,0,0,1.00208,-15.0333,-15.9104)">
        <path d="M71.418,51.685L68.109,51.685C68.145,52.485 68.618,53.031 69.418,53.031C69.964,53.031 70.4,52.813 70.545,52.34L71.418,52.34C71.236,53.249 70.473,53.758 69.418,53.758C68.145,53.758 67.2,52.849 67.2,51.467C67.2,50.013 68.145,49.103 69.382,49.103C70.473,49.103 71.418,49.831 71.418,51.358C71.455,51.504 71.455,51.576 71.418,51.685ZM68.145,51.067L70.582,51.067C70.582,50.376 70.109,49.904 69.418,49.904C68.691,49.867 68.218,50.413 68.145,51.067Z" style="fill:white;"/>
    </g>
    <g transform="matrix(1.00208,0,0,1.00208,-15.0333,-15.9104)">
        <path d="M76.473,52.995L76.473,53.686L76.073,53.686C75.637,53.686 75.346,53.54 75.237,53.14C74.946,53.54 74.437,53.795 73.782,53.795C72.909,53.795 72.255,53.395 72.255,52.522C72.255,51.686 72.909,51.249 73.746,51.14L75.127,50.995L75.127,50.777C75.127,50.195 74.8,49.867 74.255,49.867C73.709,49.867 73.418,50.195 73.346,50.667L72.437,50.667C72.509,49.795 73.164,49.14 74.255,49.14C75.273,49.14 76.037,49.686 76.037,50.813L76.037,52.631C76.037,52.886 76.146,52.995 76.364,52.995L76.473,52.995ZM75.091,51.649L74.037,51.758C73.527,51.795 73.127,52.049 73.127,52.449C73.127,52.886 73.455,53.067 73.855,53.067C74.4,53.067 75.055,52.777 75.055,51.977L75.055,51.649L75.091,51.649Z" style="fill:white;"/>
    </g>
    <g transform="matrix(1.00208,0,0,1.00208,-15.0333,-15.9104)">
        <rect x="77.236" y="47.358" width="0.909" height="6.327" style="fill:white;"/>
    </g>
    <g transform="matrix(1.00208,0,0,1.00208,-15.0333,-15.9104)">
        <path d="M82.8,48.304L82.8,50.231L85.455,50.231L85.455,51.067L82.8,51.067L82.8,53.686L81.855,53.686L81.855,47.431L85.818,47.431L85.818,48.304L82.8,48.304Z" style="fill:white;"/>
    </g>
    <g transform="matrix(1.00208,0,0,1.00208,-15.0333,-15.9104)">
        <path d="M86.597,51.446C86.597,50.1 87.542,49.118 88.888,49.118C90.197,49.118 91.179,50.1 91.179,51.446C91.179,52.791 90.197,53.773 88.888,53.773C87.579,53.773 86.597,52.791 86.597,51.446ZM90.27,51.446C90.27,50.609 89.724,49.918 88.888,49.918C88.052,49.918 87.506,50.609 87.506,51.446C87.506,52.282 88.052,52.973 88.888,52.973C89.724,52.973 90.27,52.282 90.27,51.446Z" style="fill:white;"/>
    </g>
    <g transform="matrix(1.00208,0,0,1.00208,-15.0333,-15.9104)">
        <path d="M92.015,51.446C92.015,50.1 92.961,49.118 94.306,49.118C95.615,49.118 96.597,50.1 96.597,51.446C96.597,52.791 95.615,53.773 94.306,53.773C92.997,53.773 92.015,52.791 92.015,51.446ZM95.688,51.446C95.688,50.609 95.142,49.918 94.306,49.918C93.47,49.918 92.924,50.609 92.924,51.446C92.924,52.282 93.47,52.973 94.306,52.973C95.142,52.973 95.688,52.282 95.688,51.446Z" style="fill:white;"/>
    </g>
    <g transform="matrix(1.00208,0,0,1.00208,-15.0333,-15.9104)">
        <path d="M101.833,47.373L101.833,53.7L101.106,53.7L100.997,53.082L100.924,53.082C100.706,53.373 100.27,53.773 99.506,53.773C98.306,53.773 97.433,52.864 97.433,51.446C97.433,50.028 98.342,49.119 99.506,49.119C100.197,49.119 100.67,49.446 100.888,49.737L100.888,47.373L101.833,47.373ZM100.924,51.446C100.924,50.537 100.452,49.919 99.688,49.919C98.924,49.919 98.379,50.537 98.379,51.446C98.379,52.355 98.888,52.973 99.688,52.973C100.415,52.973 100.924,52.355 100.924,51.446Z" style="fill:white;"/>
    </g>
    <g transform="matrix(1.00208,0,0,1.00208,-15.0333,-15.9104)">
        <path d="M104.16,53.373C104.16,54.137 103.651,54.682 103.215,54.937L102.96,54.646C103.251,54.391 103.47,54.1 103.506,53.773C103.251,53.81 102.96,53.591 102.96,53.228C102.96,52.864 103.215,52.646 103.542,52.646C103.942,52.573 104.16,52.9 104.16,53.373Z" style="fill:white;"/>
    </g>
    <g transform="matrix(1.00208,0,0,1.00208,-15.0333,-15.9104)">
        <path d="M111.324,53.7L109.87,51.155L108.706,51.155L108.706,53.7L107.797,53.7L107.797,47.446L110.124,47.446C111.324,47.446 112.088,48.173 112.088,49.228C112.088,50.1 111.579,50.719 110.779,50.973L112.342,53.7L111.324,53.7ZM108.706,50.319L109.979,50.319C110.706,50.319 111.142,49.882 111.142,49.264C111.142,48.609 110.706,48.246 109.979,48.246L108.706,48.246L108.706,50.319Z" style="fill:white;"/>
    </g>
    <g transform="matrix(1.00208,0,0,1.00208,-15.0333,-15.9104)">
        <path d="M117.288,51.7L113.979,51.7C114.015,52.5 114.488,53.046 115.288,53.046C115.833,53.046 116.27,52.828 116.415,52.355L117.288,52.355C117.106,53.264 116.342,53.773 115.288,53.773C114.015,53.773 113.07,52.864 113.07,51.482C113.07,50.028 114.015,49.118 115.251,49.118C116.342,49.118 117.288,49.846 117.288,51.373C117.324,51.482 117.324,51.591 117.288,51.7ZM114.015,51.046L116.451,51.046C116.451,50.355 115.979,49.882 115.288,49.882C114.56,49.882 114.088,50.391 114.015,51.046Z" style="fill:white;"/>
    </g>
    <g transform="matrix(1.00208,0,0,1.00208,-15.0333,-15.9104)">
        <path d="M122.342,53.01L122.342,53.701L121.942,53.701C121.506,53.701 121.215,53.555 121.106,53.155C120.815,53.555 120.306,53.81 119.652,53.81C118.779,53.81 118.124,53.41 118.124,52.537C118.124,51.701 118.779,51.264 119.615,51.155L120.997,51.01L120.997,50.791C120.997,50.21 120.67,49.882 120.124,49.882C119.579,49.882 119.288,50.21 119.215,50.682L118.306,50.682C118.379,49.81 119.033,49.155 120.124,49.155C121.142,49.155 121.906,49.701 121.906,50.828L121.906,52.646C121.906,52.901 122.015,53.01 122.233,53.01L122.342,53.01ZM120.961,51.664L119.906,51.737C119.397,51.773 118.997,52.028 118.997,52.428C118.997,52.864 119.324,53.046 119.724,53.046C120.27,53.046 120.924,52.755 120.924,51.955L120.924,51.664L120.961,51.664Z" style="fill:white;"/>
    </g>
    <g transform="matrix(1.00208,0,0,1.00208,-15.0333,-15.9104)">
        <rect x="123.127" y="47.358" width="0.909" height="6.327" style="fill:white;"/>
    </g>
    <g transform="matrix(1.00208,0,0,1.00208,-15.0333,-15.9104)">
        <path d="M132.124,49.373C132.124,50.537 131.324,51.3 130.088,51.3L128.633,51.3L128.633,53.7L127.724,53.7L127.724,47.446L130.088,47.446C131.324,47.446 132.124,48.209 132.124,49.373ZM131.142,49.373C131.142,48.682 130.67,48.282 130.015,48.282L128.633,48.282L128.633,50.464L129.979,50.464C130.742,50.464 131.142,50.028 131.142,49.373Z" style="fill:white;"/>
    </g>
    <g transform="matrix(1.00208,0,0,1.00208,-15.0333,-15.9104)">
        <path d="M137.288,51.7L133.979,51.7C134.015,52.5 134.488,53.046 135.288,53.046C135.833,53.046 136.27,52.828 136.415,52.355L137.288,52.355C137.106,53.264 136.342,53.773 135.288,53.773C134.015,53.773 133.07,52.864 133.07,51.482C133.07,50.028 134.015,49.118 135.251,49.118C136.342,49.118 137.288,49.846 137.288,51.373L137.288,51.7ZM133.979,51.046L136.415,51.046C136.415,50.355 135.942,49.882 135.251,49.882C134.56,49.882 134.088,50.391 133.979,51.046Z" style="fill:white;"/>
    </g>
    <g transform="matrix(1.00208,0,0,1.00208,-15.0333,-15.9104)">
        <path d="M138.197,51.446C138.197,50.1 139.142,49.118 140.488,49.118C141.797,49.118 142.779,50.1 142.779,51.446C142.779,52.791 141.797,53.773 140.488,53.773C139.142,53.773 138.197,52.791 138.197,51.446ZM141.833,51.446C141.833,50.609 141.288,49.918 140.451,49.918C139.615,49.918 139.07,50.609 139.07,51.446C139.07,52.282 139.615,52.973 140.451,52.973C141.288,52.973 141.833,52.282 141.833,51.446Z" style="fill:white;"/>
    </g>
    <g transform="matrix(1.00208,0,0,1.00208,-15.0333,-15.9104)">
        <path d="M148.124,51.482C148.124,52.9 147.215,53.809 146.051,53.809C145.361,53.809 144.888,53.482 144.67,53.191L144.67,55.482L143.76,55.482L143.76,49.228L144.488,49.228L144.561,49.809L144.633,49.809C144.851,49.518 145.288,49.118 146.051,49.118C147.251,49.155 148.124,50.064 148.124,51.482ZM147.215,51.482C147.215,50.573 146.706,49.955 145.906,49.955C145.142,49.955 144.67,50.573 144.67,51.482C144.67,52.391 145.142,53.009 145.906,53.009C146.706,52.973 147.215,52.355 147.215,51.482Z" style="fill:white;"/>
    </g>
    <g transform="matrix(1.00208,0,0,1.00208,-15.0333,-15.9104)">
        <rect x="149.127" y="47.358" width="0.946" height="6.327" style="fill:white;"/>
    </g>
    <g transform="matrix(1.00208,0,0,1.00208,-15.0333,-15.9104)">
        <path d="M155.236,51.685L151.927,51.685C151.964,52.485 152.436,53.031 153.236,53.031C153.782,53.031 154.218,52.813 154.363,52.34L155.236,52.34C155.054,53.249 154.291,53.758 153.236,53.758C151.964,53.758 151.018,52.849 151.018,51.467C151.018,50.013 151.964,49.103 153.2,49.103C154.291,49.103 155.236,49.831 155.236,51.358C155.273,51.504 155.273,51.576 155.236,51.685ZM151.964,51.067L154.4,51.067C154.4,50.376 153.927,49.904 153.236,49.904C152.509,49.867 152.036,50.413 151.964,51.067Z" style="fill:white;"/>
    </g>
</svg>
