<svg width="48" height="48" viewBox="0 0 48 48" fill="none" xmlns="http://www.w3.org/2000/svg">
<path d="M39.55 44.0999L34.05 38.5999C33.3833 39.0666 32.6917 39.4916 31.975 39.875C31.2583 40.2583 30.5167 40.5833 29.75 40.8499C29.2167 41.0166 28.7333 40.9333 28.3 40.5999C27.8667 40.2666 27.65 39.8166 27.65 39.25C27.65 38.9833 27.725 38.7416 27.875 38.525C28.025 38.3083 28.2333 38.1666 28.5 38.0999C29.1 37.8999 29.6917 37.6666 30.275 37.4C30.8583 37.1333 31.4 36.8166 31.9 36.45L23.65 28.15V36.4C23.65 37.0666 23.3417 37.525 22.725 37.775C22.1083 38.025 21.5667 37.9166 21.1 37.45L13.65 30H7.14999C6.71665 30 6.35832 29.8583 6.07499 29.575C5.79165 29.2916 5.64999 28.9333 5.64999 28.5V19.5C5.64999 19.0666 5.79165 18.7083 6.07499 18.425C6.35832 18.1416 6.71665 18 7.14999 18H13.45L3.49999 8.04995C3.19999 7.74995 3.05832 7.39162 3.07499 6.97495C3.09165 6.55828 3.24999 6.19995 3.54999 5.89995C3.84999 5.59995 4.19999 5.44995 4.59999 5.44995C4.99999 5.44995 5.34999 5.59995 5.64999 5.89995L41.75 41.95C42.05 42.25 42.2 42.6083 42.2 43.025C42.2 43.4416 42.05 43.7999 41.75 44.0999C41.45 44.3999 41.0833 44.5499 40.65 44.5499C40.2167 44.5499 39.85 44.3999 39.55 44.0999ZM29.75 7.04995C33.3167 8.31662 36.1917 10.4916 38.375 13.575C40.5583 16.6583 41.65 20.1166 41.65 23.95C41.65 25.65 41.4167 27.3166 40.95 28.95C40.4833 30.5833 39.7833 32.1333 38.85 33.5999L36.7 31.45C37.3667 30.3166 37.8583 29.1166 38.175 27.85C38.4917 26.5833 38.65 25.2833 38.65 23.95C38.65 20.65 37.725 17.6833 35.875 15.05C34.025 12.4166 31.5667 10.65 28.5 9.74995C28.2333 9.68328 28.025 9.54162 27.875 9.32495C27.725 9.10828 27.65 8.86662 27.65 8.59995C27.65 8.03329 27.875 7.59162 28.325 7.27495C28.775 6.95828 29.25 6.88328 29.75 7.04995ZM32.15 26.9L27.65 22.4V15.9C29.2167 16.6333 30.4417 17.7333 31.325 19.2C32.2083 20.6666 32.65 22.2666 32.65 24C32.65 24.5 32.6083 24.9916 32.525 25.475C32.4417 25.9583 32.3167 26.4333 32.15 26.9ZM23.65 18.4L18.45 13.2L21.1 10.55C21.5667 10.0833 22.1083 9.97495 22.725 10.225C23.3417 10.475 23.65 10.9333 23.65 11.6V18.4Z" fill="white"/>
</svg>
