<svg width="48" height="48" viewBox="0 0 48 48" fill="none" xmlns="http://www.w3.org/2000/svg">
<path d="M30.1 40.8499C29.5667 41.0166 29.0833 40.9333 28.65 40.5999C28.2167 40.2666 28 39.8166 28 39.25C28 38.9833 28.075 38.7416 28.225 38.525C28.375 38.3083 28.5833 38.1666 28.85 38.1C31.8833 37.0333 34.3333 35.2166 36.2 32.65C38.0667 30.0833 39 27.1833 39 23.95C39 20.7166 38.0667 17.8083 36.2 15.225C34.3333 12.6416 31.8833 10.8333 28.85 9.79995C28.5833 9.73329 28.375 9.58329 28.225 9.34995C28.075 9.11662 28 8.86662 28 8.59995C28 8.03329 28.225 7.59162 28.675 7.27495C29.125 6.95829 29.6 6.88329 30.1 7.04995C33.6667 8.31662 36.5417 10.4916 38.725 13.575C40.9083 16.6583 42 20.1166 42 23.95C42 27.7833 40.9083 31.2416 38.725 34.325C36.5417 37.4083 33.6667 39.5833 30.1 40.8499ZM7.5 30C7.06667 30 6.70833 29.8583 6.425 29.575C6.14167 29.2916 6 28.9333 6 28.5V19.5C6 19.0666 6.14167 18.7083 6.425 18.425C6.70833 18.1416 7.06667 18 7.5 18H14L21.45 10.55C21.9167 10.0833 22.4583 9.97495 23.075 10.225C23.6917 10.475 24 10.9333 24 11.6V36.4C24 37.0666 23.6917 37.525 23.075 37.775C22.4583 38.025 21.9167 37.9166 21.45 37.45L14 30H7.5ZM27 32.4V15.55C28.8 16.1166 30.25 17.1833 31.35 18.75C32.45 20.3166 33 22.0666 33 24C33 25.9666 32.45 27.7166 31.35 29.25C30.25 30.7833 28.8 31.8333 27 32.4Z" fill="white"/>
</svg>
