<?xml version="1.0" encoding="utf-8"?>
<!-- Generator: Adobe Illustrator 23.0.1, SVG Export Plug-In . SVG Version: 6.00 Build 0)  -->
<svg version="1.1" id="Layer_1" xmlns="http://www.w3.org/2000/svg" xmlns:xlink="http://www.w3.org/1999/xlink" x="0px" y="0px"
	 viewBox="0 0 400 400" style="enable-background:new 0 0 400 400;" xml:space="preserve">
<style type="text/css">
	.st0{fill:#FFFFFF;}
</style>
<path class="st0" d="M218.8,200L391.7,27.1c5.2-5.2,5.2-13.6,0-18.8c-5.2-5.2-13.6-5.2-18.8,0L200,181.2L27.1,8.3
	c-5.2-5.2-13.6-5.2-18.8,0c-5.2,5.2-5.2,13.6,0,18.8L181.2,200L8.3,372.9c-5.2,5.2-5.2,13.6,0,18.8c2.6,2.6,6,3.9,9.4,3.9
	s6.8-1.3,9.4-3.9L200,218.8l172.9,172.9c2.6,2.6,6,3.9,9.4,3.9s6.8-1.3,9.4-3.9c5.2-5.2,5.2-13.6,0-18.8L218.8,200z"/>
</svg>
