<?xml version="1.0" encoding="utf-8"?>
<!-- Generator: Adobe Illustrator 23.0.1, SVG Export Plug-In . SVG Version: 6.00 Build 0)  -->
<svg version="1.1" id="Layer_1" xmlns="http://www.w3.org/2000/svg" xmlns:xlink="http://www.w3.org/1999/xlink" x="0px" y="0px"
	 viewBox="0 0 483 255" style="enable-background:new 0 0 483 255;" xml:space="preserve">
<style type="text/css">
	.st0{fill:#FFFFFF;}
</style>
<g>
	<g>
		<path d="M91.3,73.9H137l72.9,172.4H159l-12.5-30.6h-66l-12.2,30.6H18.5L91.3,73.9z M132.9,178.8l-19.1-48.7l-19.3,48.7H132.9z"/>
	</g>
</g>
<g>
	<g>
		<path d="M318.6,211.9l85.8-96.6h-82.9V75.2H470v34.5l-85.8,96.6H470v40.1H318.6V211.9z"/>
	</g>
</g>
<g>
	<polygon points="293.9,159.2 248.6,112.6 248.6,140.9 122.6,140.9 122.6,177.6 248.6,177.6 248.6,205.9 	"/>
</g>
<g>
	<g>
		<path class="st0" d="M82.7,65.3h45.7l72.9,172.4h-50.9L138,207.1H72l-12.2,30.6H9.9L82.7,65.3z M124.3,170.2l-19.1-48.7
			l-19.3,48.7H124.3z"/>
	</g>
</g>
<g>
	<g>
		<path class="st0" d="M310,203.2l85.8-96.6H313v-40h148.4V101l-85.8,96.6h85.8v40.1H310V203.2z"/>
	</g>
</g>
</svg>
