<?xml version="1.0" encoding="utf-8"?>
<!-- Generator: Adobe Illustrator 23.0.1, SVG Export Plug-In . SVG Version: 6.00 Build 0)  -->
<svg version="1.1" id="Layer_3" xmlns="http://www.w3.org/2000/svg" xmlns:xlink="http://www.w3.org/1999/xlink" x="0px" y="0px"
	 viewBox="0 0 461 315" style="enable-background:new 0 0 461 315;" xml:space="preserve">
<style type="text/css">
	.st0{fill:#FFFFFF;}
	.st1{fill:#67686B;}
	.st2{fill:#C4C6C8;}
</style>
<path class="st0" d="M360.2,306.3H104.7c-10.2,0-18.5-8.3-18.5-18.5V32.3c0-10.2,8.3-18.5,18.5-18.5h255.5
	c10.2,0,18.5,8.3,18.5,18.5v255.5C378.7,298,370.4,306.3,360.2,306.3z"/>
<rect x="111.9" y="39.9" class="st1" width="72.1" height="72.1"/>
<rect x="196.4" y="39.9" class="st2" width="72.1" height="72.1"/>
<rect x="280.9" y="39.9" class="st1" width="72.1" height="72.1"/>
<rect x="111.9" y="124" class="st2" width="72.1" height="72.1"/>
<rect x="196.4" y="124" class="st2" width="72.1" height="72.1"/>
<rect x="280.9" y="124" class="st2" width="72.1" height="72.1"/>
<rect x="111.9" y="208.1" class="st1" width="72.1" height="72.1"/>
<rect x="196.4" y="208.1" class="st2" width="72.1" height="72.1"/>
<rect x="280.9" y="208.1" class="st1" width="72.1" height="72.1"/>
</svg>
