<?xml version="1.0" encoding="utf-8"?>
<!-- Generator: Adobe Illustrator 23.0.1, SVG Export Plug-In . SVG Version: 6.00 Build 0)  -->
<svg version="1.1" id="Layer_2" xmlns="http://www.w3.org/2000/svg" xmlns:xlink="http://www.w3.org/1999/xlink" x="0px" y="0px"
	 viewBox="0 0 461 315" style="enable-background:new 0 0 461 315;" xml:space="preserve">
<style type="text/css">
	.st0{fill:#FF3B00;}
	.st1{fill:#FFCD00;}
	.st2{fill:#FFFFFF;}
	.st3{fill:#212121;}
	.st4{fill:#686868;}
	.st5{fill:#292929;}
</style>
<polygon class="st0" points="315.2,33.6 338.7,6.3 340.2,42.3 376.2,43.6 349,67.2 370.4,96.2 334.9,89.6 325.6,124.4 308.7,92.7 
	275.6,107.1 289.9,74 258,57.2 292.8,47.7 286.1,12.3 "/>
<polygon class="st1" points="317.1,50.3 328.8,36.7 329.5,54.6 347.4,55.3 333.9,67 344.5,81.4 326.9,78.2 322.3,95.5 313.9,79.7 
	297.5,86.8 304.5,70.4 288.7,62 306,57.3 302.7,39.7 "/>
<path class="st2" d="M313.3,64l-40.4,40.4c-2.3,2.3-2.3,6.1,0,8.4l0.2,0.2c2.3,2.3,6.1,2.3,8.4,0l40.4-40.4c2.3-2.3,2.3-6.1,0-8.4
	l-0.2-0.2C319.4,61.7,315.6,61.7,313.3,64z"/>
<circle class="st3" cx="206.5" cy="179.5" r="105.5"/>
<circle class="st4" cx="155.5" cy="139.5" r="23.5"/>
<path class="st5" d="M317.1,109.2l-40.4-40.4c-2.3-2.3-6.1-2.3-8.4,0l-12.7,12.7c-2.3,2.3-2.3,6.1,0,8.4l40.4,40.4
	c2.3,2.3,6.1,2.3,8.4,0l12.7-12.7C319.4,115.3,319.4,111.6,317.1,109.2z"/>
</svg>
