<?xml version="1.0" encoding="utf-8"?>
<!-- Generator: Adobe Illustrator 23.0.1, SVG Export Plug-In . SVG Version: 6.00 Build 0)  -->
<svg version="1.1" id="Layer_1" xmlns="http://www.w3.org/2000/svg" xmlns:xlink="http://www.w3.org/1999/xlink" x="0px" y="0px"
	 viewBox="0 0 320.8 195" style="enable-background:new 0 0 320.8 195;" xml:space="preserve">
<g>
	<path d="M74.1,11.1L9.9,96.7l64.2,87.2h236.8V11.1H74.1z M296.9,169.9H81.1L27.3,96.7l53.8-71.6h215.8V169.9z"/>
	<path d="M122,155.9c1.4,1.4,3.2,2.1,4.9,2.1s3.6-0.7,4.9-2.1l48.5-48.5l48.5,48.5c1.4,1.4,3.2,2.1,5,2.1s3.6-0.7,5-2.1
		c2.7-2.7,2.7-7.2,0-9.9l-48.5-48.5l48.5-48.5c2.7-2.7,2.7-7.2,0-9.9c-2.7-2.7-7.2-2.7-9.9,0l-48.5,48.5L131.9,39
		c-2.7-2.7-7.2-2.7-9.9,0c-2.7,2.7-2.7,7.2,0,9.9l48.5,48.5L122,146C119.3,148.8,119.3,153.2,122,155.9z"/>
</g>
</svg>
