<?xml version="1.0" encoding="utf-8"?>
<!-- Generator: Adobe Illustrator 23.0.1, SVG Export Plug-In . SVG Version: 6.00 Build 0)  -->
<svg version="1.1" xmlns="http://www.w3.org/2000/svg" xmlns:xlink="http://www.w3.org/1999/xlink" x="0px" y="0px"
	 viewBox="0 0 461 315" style="enable-background:new 0 0 461 315;" xml:space="preserve">
<style type="text/css">
	.st0{display:none;}
	.st1{display:inline;}
	.st2{fill:#FFB2B9;}
	.st3{fill:#FFFFFF;}
	.st4{fill:#666666;}
	.st5{fill:#C48227;}
</style>
<g id="Layer_1" class="st0">
	<g class="st1">
		<path class="st2" d="M28.1,298.5c-8.9,0-16.1-7.2-16.1-16.1V32.6c0-8.9,7.2-16.1,16.1-16.1h162.7c8.9,0,16.1,7.2,16.1,16.1v249.7
			c0,8.9-7.2,16.1-16.1,16.1H28.1z"/>
		<path class="st3" d="M190.9,23.5c5,0,9.1,4.1,9.1,9.1v249.7c0,5-4.1,9.1-9.1,9.1H28.1c-5,0-9.1-4.1-9.1-9.1V32.6
			c0-5,4.1-9.1,9.1-9.1H190.9 M190.9,9.5H28.1C15.4,9.5,5,19.8,5,32.6v249.7c0,12.8,10.4,23.1,23.1,23.1h162.7
			c12.8,0,23.1-10.4,23.1-23.1V32.6C214,19.8,203.6,9.5,190.9,9.5L190.9,9.5z"/>
	</g>
	<g class="st1">
		<g>
			<path class="st3" d="M268.9,298.5c-8.9,0-16.1-7.2-16.1-16.1V32.6c0-8.9,7.2-16.1,16.1-16.1h162.7c8.9,0,16.1,7.2,16.1,16.1
				v249.7c0,8.9-7.2,16.1-16.1,16.1H268.9z"/>
			<g>
				<path class="st3" d="M431.6,23.5c5,0,9.1,4.1,9.1,9.1v249.7c0,5-4.1,9.1-9.1,9.1H268.9c-5,0-9.1-4.1-9.1-9.1V32.6
					c0-5,4.1-9.1,9.1-9.1H431.6 M431.6,9.5H268.9c-12.8,0-23.1,10.4-23.1,23.1v249.7c0,12.8,10.4,23.1,23.1,23.1h162.7
					c12.8,0,23.1-10.4,23.1-23.1V32.6C454.8,19.8,444.4,9.5,431.6,9.5L431.6,9.5z"/>
			</g>
		</g>
		<path id="Spade_Icon" class="st4" d="M381.4,149c-0.6-0.8-1.3-1.5-1.9-2.3c-3.8-4.7-7.7-8.8-11.9-13.3l-17.4-18.9l-17.4,18.9
			c-4.1,4.5-8.1,8.5-11.9,13.3c-0.6,0.8-1.2,1.5-1.9,2.3c-16.7,20.2,8.7,45.8,28.6,30.2c-1.3,11.5-8.6,16.9-12.1,18.9
			c-1.3,0.7-1.6,0.8-1.6,2.5l0,0h16.3h16.3l0,0c0-1.6-0.3-1.8-1.6-2.5c-3.6-1.9-10.9-7.4-12.1-18.9
			C372.8,194.8,398.1,169.1,381.4,149z"/>
	</g>
</g>
<g id="Layer_2">
	<path class="st5" d="M356.9,79H111.1C98.3,79,88,89.3,88,102.1v164.9c0,12.7,10.3,23.1,23.1,23.1h245.9c12.7,0,23.1-10.3,23.1-23.1
		V102.1C380,89.3,369.7,79,356.9,79z"/>
	<path class="st5" d="M311.5,122h-30V61.5c0-2.5-2-4.5-4.5-4.5H191c-2.5,0-4.5,2-4.5,4.5V118h-30V61.5c0-19,15.5-34.5,34.5-34.5H277
		c19,0,34.5,15.5,34.5,34.5V122z"/>
	<polygon class="st3" points="234,202.5 204,224.4 215.6,189.1 185.5,167.4 222.6,167.5 234,132.1 245.4,167.5 282.5,167.4 
		252.4,189.1 264,224.4 	"/>
</g>
</svg>
