<?xml version="1.0" encoding="utf-8"?>
<!-- Generator: Adobe Illustrator 23.0.1, SVG Export Plug-In . SVG Version: 6.00 Build 0)  -->
<svg version="1.1" xmlns="http://www.w3.org/2000/svg" xmlns:xlink="http://www.w3.org/1999/xlink" x="0px" y="0px"
	 viewBox="0 0 539 276" style="enable-background:new 0 0 539 276;" xml:space="preserve">
<style type="text/css">
	.st0{display:none;}
	.st1{display:inline;fill:#FFFFFF;}
	.st2{display:inline;fill:#29ABE2;}
	.st3{display:inline;}
	.st4{fill:#29ABE2;}
	.st5{fill:#F6B4A7;}
	.st6{fill:#6AC5EB;}
</style>
<g id="Layer_1" class="st0">
	<path class="st1" d="M217.3,248.8H54.7C37.2,248.8,23,234.6,23,217V57.3c0-17.5,14.2-31.8,31.8-31.8h162.6
		c17.5,0,31.8,14.2,31.8,31.8V217C249.1,234.6,234.9,248.8,217.3,248.8z"/>
	<path class="st1" d="M482.3,248.8H319.7c-17.5,0-31.8-14.2-31.8-31.8V57.3c0-17.5,14.2-31.8,31.8-31.8h162.6
		c17.5,0,31.8,14.2,31.8,31.8V217C514.1,234.6,499.9,248.8,482.3,248.8z"/>
	<path class="st1" d="M747.3,248.8H584.7c-17.5,0-31.8-14.2-31.8-31.8V57.3c0-17.5,14.2-31.8,31.8-31.8h162.6
		c17.5,0,31.8,14.2,31.8,31.8V217C779.1,234.6,764.9,248.8,747.3,248.8z"/>
	<polygon class="st2" points="133.5,160.9 104.1,182.4 115.4,147.8 85.9,126.5 122.3,126.6 133.5,91.9 144.7,126.6 181.1,126.5 
		151.6,147.8 162.9,182.4 	"/>
	<polygon class="st2" points="667.5,160.9 638.1,182.4 649.4,147.8 619.9,126.5 656.3,126.6 667.5,91.9 678.7,126.6 715.1,126.5 
		685.6,147.8 696.9,182.4 	"/>
	<g class="st3">
		<path class="st4" d="M385.4,129.1l1.1-1.3c16.7-1.4,22.6-5.3,22.6-11.5v-0.1c0-4.9-3.9-7.9-10.8-7.9c-6.8,0-14.2,3.4-21,9.5
			l-14.4-19c8.8-8.8,20.7-15.1,37.2-15.1c21.1,0,35.9,11.5,35.9,30.2v0.3c0,18.1-12.1,25.9-28,29.7l-1.7,9.2H389L385.4,129.1z
			 M383.1,161.4h28.3v24.4h-28.3V161.4z"/>
	</g>
</g>
<g id="Layer_1_copy">
	<path class="st5" d="M428.3,53.7H306.7c-13.1,0-23.7,10.6-23.7,23.7v119.4c0,13.1,10.6,23.7,23.7,23.7h121.5
		c13.1,0,23.7-10.6,23.7-23.7V77.5C452,64.4,441.4,53.7,428.3,53.7z M395.1,155.9c0,4.7-3.8,8.6-8.6,8.6h-38.2
		c-4.7,0-8.6-3.8-8.6-8.6v-37.5c0-4.7,3.8-8.6,8.6-8.6h38.2c4.7,0,8.6,3.8,8.6,8.6V155.9z"/>
	<path class="st6" d="M229.7,53.7H108.1c-13.1,0-23.7,10.6-23.7,23.7v119.4c0,13.1,10.6,23.7,23.7,23.7h121.5
		c13.1,0,23.7-10.6,23.7-23.7V77.5C253.4,64.4,242.8,53.7,229.7,53.7z M196.6,156.2c0,4.7-3.8,8.6-8.6,8.6h-38.2
		c-4.7,0-8.6-3.8-8.6-8.6v-37.5c0-4.7,3.8-8.6,8.6-8.6H188c4.7,0,8.6,3.8,8.6,8.6V156.2z"/>
</g>
</svg>
