<?xml version="1.0" encoding="utf-8"?>
<!-- Generator: Adobe Illustrator 23.0.1, SVG Export Plug-In . SVG Version: 6.00 Build 0)  -->
<svg version="1.1" id="Layer_1" xmlns="http://www.w3.org/2000/svg" xmlns:xlink="http://www.w3.org/1999/xlink" x="0px" y="0px"
	 viewBox="0 0 804 276" style="enable-background:new 0 0 804 276;" xml:space="preserve">
<style type="text/css">
	.st0{fill:#FFFFFF;}
	.st1{fill:#29ABE2;}
</style>
<path class="st0" d="M217.3,248.8H54.7C37.2,248.8,23,234.6,23,217V57.3c0-17.5,14.2-31.8,31.8-31.8h162.6
	c17.5,0,31.8,14.2,31.8,31.8V217C249.1,234.6,234.9,248.8,217.3,248.8z"/>
<path class="st0" d="M482.3,248.8H319.7c-17.5,0-31.8-14.2-31.8-31.8V57.3c0-17.5,14.2-31.8,31.8-31.8h162.6
	c17.5,0,31.8,14.2,31.8,31.8V217C514.1,234.6,499.9,248.8,482.3,248.8z"/>
<path class="st0" d="M747.3,248.8H584.7c-17.5,0-31.8-14.2-31.8-31.8V57.3c0-17.5,14.2-31.8,31.8-31.8h162.6
	c17.5,0,31.8,14.2,31.8,31.8V217C779.1,234.6,764.9,248.8,747.3,248.8z"/>
<polygon class="st1" points="133.5,160.9 104.1,182.4 115.4,147.8 85.9,126.5 122.3,126.6 133.5,91.9 144.7,126.6 181.1,126.5 
	151.6,147.8 162.9,182.4 "/>
<polygon class="st1" points="667.5,160.9 638.1,182.4 649.4,147.8 619.9,126.5 656.3,126.6 667.5,91.9 678.7,126.6 715.1,126.5 
	685.6,147.8 696.9,182.4 "/>
<g>
	<path class="st1" d="M385.4,129.1l1.1-1.3c16.7-1.4,22.6-5.3,22.6-11.5v-0.1c0-4.9-3.9-7.9-10.8-7.9c-6.8,0-14.2,3.4-21,9.5
		l-14.4-19c8.8-8.8,20.7-15.1,37.2-15.1c21.1,0,35.9,11.5,35.9,30.2v0.3c0,18.1-12.1,25.9-28,29.7l-1.7,9.2H389L385.4,129.1z
		 M383.1,161.4h28.3v24.4h-28.3V161.4z"/>
</g>
</svg>
