<?xml version="1.0" encoding="utf-8"?>
<!-- Generator: Adobe Illustrator 23.0.1, SVG Export Plug-In . SVG Version: 6.00 Build 0)  -->
<svg version="1.1" id="Layer_3" xmlns="http://www.w3.org/2000/svg" xmlns:xlink="http://www.w3.org/1999/xlink" x="0px" y="0px"
	 viewBox="0 0 461 315" style="enable-background:new 0 0 461 315;" xml:space="preserve">
<style type="text/css">
	.st0{fill:#E4DC40;}
	.st1{fill:#00C8CB;}
	.st2{fill:#FFFFFF;}
	.st3{fill:none;stroke:#000000;stroke-width:10.0596;stroke-miterlimit:10;}
</style>
<g>
	<rect x="158.7" y="83.3" class="st0" width="143.3" height="145.8"/>
	<polygon class="st1" points="158.7,83.3 158.7,232.4 31.7,232.4 16,216.6 16,95.3 30.1,81.1 	"/>
	<polygon class="st2" points="303.3,83.3 303.3,232.4 430.3,232.4 446,216.6 446,95.3 431.9,81.1 	"/>
	<path class="st3" d="M423.1,231.1H38.2c-11.6,0-21-9.4-21-21V104.4c0.1-11.6,9.5-21,21-21h384.9c11.6,0,21,9.4,21,21v105.7
		C444.1,221.7,434.8,231.1,423.1,231.1z"/>
	<line class="st3" x1="301.8" y1="85.2" x2="301.8" y2="231"/>
	<line class="st3" x1="159.5" y1="85.2" x2="159.5" y2="231"/>
</g>
</svg>
