<?xml version="1.0" encoding="utf-8"?>
<!-- Generator: Adobe Illustrator 23.0.1, SVG Export Plug-In . SVG Version: 6.00 Build 0)  -->
<svg version="1.1" xmlns="http://www.w3.org/2000/svg" xmlns:xlink="http://www.w3.org/1999/xlink" x="0px" y="0px"
	 viewBox="0 0 624 315" style="enable-background:new 0 0 624 315;" xml:space="preserve">
<style type="text/css">
	.st0{display:none;}
	.st1{display:inline;fill:#FFFFFF;}
	.st2{display:inline;}
	.st3{fill:#FFFFFF;}
</style>
<g id="Layer_1" class="st0">
	<rect x="35.4" y="44.2" class="st1" width="156.3" height="229.6"/>
	<rect x="433.7" y="44.2" class="st1" width="156.3" height="229.6"/>
	<rect x="234.6" y="44.2" class="st1" width="156.3" height="229.6"/>
	<path class="st2" d="M97.8,198.9l-5.7,27.2h-26l36-140.1h24.4l35.7,140.1h-26l-5.7-27.2H97.8z M114.3,119.7l-11.8,56.9H126
		L114.3,119.7z"/>
	<path class="st2" d="M471.7,187.5v-63.2c0-13.3,3.7-23.3,11.2-30.2c7.4-6.8,17.3-10.3,29.5-10.3c11.6,0,21.1,3.4,28.2,10.2
		c7.2,6.8,10.8,17.1,10.8,30.9v4.3h-25v-4.1c0-6.4-1.3-11.1-4-14.1c-2.6-3-6.2-4.6-10.7-4.6c-5.3,0-9.1,1.8-11.5,5.5
		c-2.4,3.7-3.6,9.1-3.6,16.5v56.3c0,13.7,5,20.5,15,20.5c4.5,0,8-1.6,10.7-4.7c2.6-3.1,4-7.7,4-13.8V183h24.8v3.9
		c0,13.5-3.8,23.7-11.3,30.6s-17.2,10.3-28.9,10.3c-12.1,0-21.6-3.4-28.6-10.3C475.2,210.6,471.7,200.6,471.7,187.5z"/>
</g>
<g id="Layer_2">
	<path class="st3" d="M315.5,18C197.6,18,102,73.1,102,141c0,67.7,94.9,122.6,212.2,123L292,307l106.2-52.6
		C475.1,235.8,529,192,529,141C529,73.1,433.4,18,315.5,18z M323.7,208.9c-0.9,4.9-3.3,8.7-7.1,11.5c-3.8,2.7-8.2,3.6-13.2,2.7
		c-4.9-0.9-8.7-3.3-11.3-7.2c-2.6-3.9-3.5-8.3-2.6-13.3c0.9-4.9,3.3-8.7,7.1-11.5c3.8-2.7,8.2-3.6,13.2-2.7
		c4.9,0.9,8.7,3.3,11.3,7.2C323.8,199.6,324.6,204,323.7,208.9z M348.1,79.2l-25.2,88c-0.9,2.9-2.2,4.9-4.1,6.2
		c-1.9,1.2-4,1.6-6.3,1.2c-2.3-0.4-4.1-1.6-5.5-3.4c-1.3-1.8-1.9-4.2-1.6-7.2l8.2-91.4l0.2-2.4c0.9-4.8,3.2-8.3,7.1-10.5
		c3.8-2.2,8.3-2.9,13.4-1.9c5.4,1,9.5,3.5,12.2,7.4C349.2,69.1,349.7,73.8,348.1,79.2z"/>
</g>
</svg>
