<?xml version="1.0" encoding="utf-8"?>
<!-- Generator: Adobe Illustrator 23.0.1, SVG Export Plug-In . SVG Version: 6.00 Build 0)  -->
<svg version="1.1" id="Layer_3" xmlns="http://www.w3.org/2000/svg" xmlns:xlink="http://www.w3.org/1999/xlink" x="0px" y="0px"
	 viewBox="0 0 461 315" style="enable-background:new 0 0 461 315;" xml:space="preserve">
<style type="text/css">
	.st0{fill:#FFFFFF;stroke:#000000;stroke-width:10;stroke-miterlimit:10;}
	.st1{fill:none;stroke:#FFFFFF;stroke-miterlimit:10;}
	.st2{fill:#274A83;}
	.st3{fill:#91C1E7;}
	.st4{fill:#5F93BE;}
</style>
<path class="st0" d="M360.2,306.3H104.7c-10.2,0-18.5-8.3-18.5-18.5V32.3c0-10.2,8.3-18.5,18.5-18.5h255.5
	c10.2,0,18.5,8.3,18.5,18.5v255.5C378.7,298,370.4,306.3,360.2,306.3z"/>
<path class="st1" d="M753.7,459.1h-246c-10.5,0-19-8.5-19-19v-246c0-10.5,8.5-19,19-19h246c10.5,0,19,8.5,19,19v246
	C772.7,450.6,764.2,459.1,753.7,459.1z"/>
<path class="st2" d="M577.9,271.8h-69.9c-3.4,0-6.1-2.7-6.1-6.1v-69.9c0-3.4,2.7-6.1,6.1-6.1h69.9c3.4,0,6.1,2.7,6.1,6.1v69.9
	C584,268.9,581.3,271.8,577.9,271.8z"/>
<path class="st2" d="M665.5,271.8h-69.9c-3.4,0-6.1-2.7-6.1-6.1v-69.9c0-3.4,2.7-6.1,6.1-6.1h69.9c3.4,0,6.1,2.7,6.1,6.1v69.9
	C671.6,268.9,668.9,271.8,665.5,271.8z"/>
<path class="st2" d="M752.9,271.8h-69.9c-3.4,0-6.1-2.7-6.1-6.1v-69.9c0-3.4,2.7-6.1,6.1-6.1h69.9c3.4,0,6.1,2.7,6.1,6.1v69.9
	C759,268.9,756.3,271.8,752.9,271.8z"/>
<path class="st2" d="M577.9,271.8h-69.9c-3.4,0-6.1-2.7-6.1-6.1v-69.9c0-3.4,2.7-6.1,6.1-6.1h69.9c3.4,0,6.1,2.7,6.1,6.1v69.9
	C584,268.9,581.3,271.8,577.9,271.8z"/>
<path class="st3" d="M665.5,271.8h-69.9c-3.4,0-6.1-2.7-6.1-6.1v-69.9c0-3.4,2.7-6.1,6.1-6.1h69.9c3.4,0,6.1,2.7,6.1,6.1v69.9
	C671.6,268.9,668.9,271.8,665.5,271.8z"/>
<path class="st3" d="M752.9,271.8h-69.9c-3.4,0-6.1-2.7-6.1-6.1v-69.9c0-3.4,2.7-6.1,6.1-6.1h69.9c3.4,0,6.1,2.7,6.1,6.1v69.9
	C759,268.9,756.3,271.8,752.9,271.8z"/>
<path class="st4" d="M577.9,359.2h-69.9c-3.4,0-6.1-2.7-6.1-6.1v-69.9c0-3.4,2.7-6.1,6.1-6.1h69.9c3.4,0,6.1,2.7,6.1,6.1v69.9
	C584,356.5,581.3,359.2,577.9,359.2z"/>
<path class="st3" d="M665.5,359.2h-69.9c-3.4,0-6.1-2.7-6.1-6.1v-69.9c0-3.4,2.7-6.1,6.1-6.1h69.9c3.4,0,6.1,2.7,6.1,6.1v69.9
	C671.6,356.5,668.9,359.2,665.5,359.2z"/>
<path class="st3" d="M752.9,359.2h-69.9c-3.4,0-6.1-2.7-6.1-6.1v-69.9c0-3.4,2.7-6.1,6.1-6.1h69.9c3.4,0,6.1,2.7,6.1,6.1v69.9
	C759,356.5,756.3,359.2,752.9,359.2z"/>
<path class="st4" d="M577.9,446.6h-69.9c-3.4,0-6.1-2.7-6.1-6.1v-69.9c0-3.4,2.7-6.1,6.1-6.1h69.9c3.4,0,6.1,2.7,6.1,6.1v69.9
	C584,443.9,581.3,446.6,577.9,446.6z"/>
<path class="st4" d="M665.5,446.6h-69.9c-3.4,0-6.1-2.7-6.1-6.1v-69.9c0-3.4,2.7-6.1,6.1-6.1h69.9c3.4,0,6.1,2.7,6.1,6.1v69.9
	C671.6,443.9,668.9,446.6,665.5,446.6z"/>
<path class="st4" d="M752.9,446.6h-69.9c-3.4,0-6.1-2.7-6.1-6.1v-69.9c0-3.4,2.7-6.1,6.1-6.1h69.9c3.4,0,6.1,2.7,6.1,6.1v69.9
	C759,443.9,756.3,446.6,752.9,446.6z"/>
<rect x="111.9" y="39.9" class="st2" width="72.1" height="72.1"/>
<rect x="196.4" y="39.9" class="st4" width="72.1" height="72.1"/>
<rect x="280.9" y="39.9" class="st4" width="72.1" height="72.1"/>
<rect x="111.9" y="124" class="st4" width="72.1" height="72.1"/>
<rect x="196.4" y="124" class="st3" width="72.1" height="72.1"/>
<rect x="280.9" y="124" class="st2" width="72.1" height="72.1"/>
<rect x="111.9" y="208.1" class="st4" width="72.1" height="72.1"/>
<rect x="196.4" y="208.1" class="st4" width="72.1" height="72.1"/>
<rect x="280.9" y="208.1" class="st4" width="72.1" height="72.1"/>
</svg>
