<?xml version="1.0" encoding="utf-8"?>
<!-- Generator: Adobe Illustrator 23.0.1, SVG Export Plug-In . SVG Version: 6.00 Build 0)  -->
<svg version="1.1" id="Layer_1" xmlns="http://www.w3.org/2000/svg" xmlns:xlink="http://www.w3.org/1999/xlink" x="0px" y="0px"
	 viewBox="0 0 461 315" style="enable-background:new 0 0 461 315;" xml:space="preserve">
<style type="text/css">
	.st0{fill:#FFB2B9;}
	.st1{fill:#FFFFFF;}
	.st2{fill:#666666;}
</style>
<g>
	<path class="st0" d="M28.1,298.5c-8.9,0-16.1-7.2-16.1-16.1V32.6c0-8.9,7.2-16.1,16.1-16.1h162.7c8.9,0,16.1,7.2,16.1,16.1v249.7
		c0,8.9-7.2,16.1-16.1,16.1H28.1z"/>
	<path class="st1" d="M190.9,23.5c5,0,9.1,4.1,9.1,9.1v249.7c0,5-4.1,9.1-9.1,9.1H28.1c-5,0-9.1-4.1-9.1-9.1V32.6
		c0-5,4.1-9.1,9.1-9.1H190.9 M190.9,9.5H28.1C15.4,9.5,5,19.8,5,32.6v249.7c0,12.8,10.4,23.1,23.1,23.1h162.7
		c12.8,0,23.1-10.4,23.1-23.1V32.6C214,19.8,203.6,9.5,190.9,9.5L190.9,9.5z"/>
</g>
<g>
	<g>
		<path class="st1" d="M268.9,298.5c-8.9,0-16.1-7.2-16.1-16.1V32.6c0-8.9,7.2-16.1,16.1-16.1h162.7c8.9,0,16.1,7.2,16.1,16.1v249.7
			c0,8.9-7.2,16.1-16.1,16.1H268.9z"/>
		<g>
			<path class="st1" d="M431.6,23.5c5,0,9.1,4.1,9.1,9.1v249.7c0,5-4.1,9.1-9.1,9.1H268.9c-5,0-9.1-4.1-9.1-9.1V32.6
				c0-5,4.1-9.1,9.1-9.1H431.6 M431.6,9.5H268.9c-12.8,0-23.1,10.4-23.1,23.1v249.7c0,12.8,10.4,23.1,23.1,23.1h162.7
				c12.8,0,23.1-10.4,23.1-23.1V32.6C454.8,19.8,444.4,9.5,431.6,9.5L431.6,9.5z"/>
		</g>
	</g>
	<path id="Spade_Icon" class="st2" d="M381.4,149c-0.6-0.8-1.3-1.5-1.9-2.3c-3.8-4.7-7.7-8.8-11.9-13.3l-17.4-18.9l-17.4,18.9
		c-4.1,4.5-8.1,8.5-11.9,13.3c-0.6,0.8-1.2,1.5-1.9,2.3c-16.7,20.2,8.7,45.8,28.6,30.2c-1.3,11.5-8.6,16.9-12.1,18.9
		c-1.3,0.7-1.6,0.8-1.6,2.5l0,0h16.3h16.3l0,0c0-1.6-0.3-1.8-1.6-2.5c-3.6-1.9-10.9-7.4-12.1-18.9
		C372.8,194.8,398.1,169.1,381.4,149z"/>
</g>
</svg>
