<?xml version="1.0" encoding="utf-8"?>
<!-- Generator: Adobe Illustrator 23.0.1, SVG Export Plug-In . SVG Version: 6.00 Build 0)  -->
<svg version="1.1" id="Layer_3" xmlns="http://www.w3.org/2000/svg" xmlns:xlink="http://www.w3.org/1999/xlink" x="0px" y="0px"
	 viewBox="0 0 461 315" style="enable-background:new 0 0 461 315;" xml:space="preserve">
<style type="text/css">
	.st0{fill:#7A1C1C;}
	.st1{fill:#FFFFFF;}
</style>
<path class="st0" d="M402.3,274.7l-109.6-42.5l-2.7-19.8l-6.4-5.3l-0.9-23.9c0,0,8.7-0.4,14.2-41.7c0,0,3.7,1.8,5-2.8l5.2-21.6
	c0,0,2.5-7.5-5-7.9c0,0,13.2-56-20.8-78.7c0,0-15.3-13.3-46-15.2v0c0,0,0,0,0,0c0,0,0,0,0,0v0c-30.8,1.8-46,15.2-46,15.2
	c-34,22.7-20.8,78.7-20.8,78.7c-7.5,0.4-5,7.9-5,7.9l5.2,21.6c1.4,4.7,5,2.8,5,2.8c5.5,41.3,14.2,41.7,14.2,41.7l-0.9,23.9l-6.4,5.3
	l-2.7,19.8L68.2,274.7c-15.5,4.9-14.6,19.4-14.6,19.4h181.6h0.1h181.6C416.9,294.1,417.8,279.6,402.3,274.7z"/>
<g>
	<path class="st1" d="M226.9,141.9c0.1-6.4,0.8-11.5,2.2-15.2c1.3-3.7,4.1-7.8,8.2-12.3l10.6-10.9c4.5-5.1,6.8-10.6,6.8-16.5
		c0-5.6-1.5-10.1-4.4-13.3c-3-3.2-7.3-4.8-12.9-4.8c-5.5,0-9.9,1.5-13.3,4.4c-3.3,2.9-5,6.8-5,11.7h-15c0.1-8.7,3.2-15.8,9.3-21.1
		c6.1-5.4,14.1-8,23.9-8c10.2,0,18.1,2.7,23.8,8.2c5.7,5.5,8.5,13,8.5,22.5c0,9.4-4.4,18.7-13.1,27.8l-8.8,8.7
		c-3.9,4.4-5.9,10.6-5.9,18.8H226.9z M226.3,167.6c0-2.4,0.7-4.5,2.2-6.2c1.5-1.7,3.7-2.5,6.6-2.5c2.9,0,5.1,0.8,6.6,2.5
		c1.5,1.7,2.3,3.7,2.3,6.2c0,2.4-0.8,4.5-2.3,6.1c-1.5,1.6-3.7,2.4-6.6,2.4c-2.9,0-5.1-0.8-6.6-2.4C227,172.1,226.3,170,226.3,167.6
		z"/>
</g>
</svg>
