<?xml version="1.0" encoding="utf-8"?>
<!-- Generator: Adobe Illustrator 23.0.1, SVG Export Plug-In . SVG Version: 6.00 Build 0)  -->
<svg version="1.1" xmlns="http://www.w3.org/2000/svg" xmlns:xlink="http://www.w3.org/1999/xlink" x="0px" y="0px"
	 viewBox="0 0 461 315" style="enable-background:new 0 0 461 315;" xml:space="preserve">
<style type="text/css">
	.st0{display:none;}
	.st1{display:inline;fill:#FF3B00;}
	.st2{display:inline;fill:#FFCD00;}
	.st3{display:inline;fill:#FFFFFF;}
	.st4{display:inline;fill:#212121;}
	.st5{display:inline;fill:#686868;}
	.st6{display:inline;fill:#292929;}
	.st7{fill:#DD3EAE;}
	.st8{fill:#FFFFFF;}
</style>
<g id="Layer_2" class="st0">
	<polygon class="st1" points="315.2,33.6 338.7,6.3 340.2,42.3 376.2,43.6 349,67.2 370.4,96.2 334.9,89.6 325.6,124.4 308.7,92.7 
		275.6,107.1 289.9,74 258,57.2 292.8,47.7 286.1,12.3 	"/>
	<polygon class="st2" points="317.1,50.3 328.8,36.7 329.5,54.6 347.4,55.3 333.9,67 344.5,81.4 326.9,78.2 322.3,95.5 313.9,79.7 
		297.5,86.8 304.5,70.4 288.7,62 306,57.3 302.7,39.7 	"/>
	<path class="st3" d="M313.3,64l-40.4,40.4c-2.3,2.3-2.3,6.1,0,8.4l0.2,0.2c2.3,2.3,6.1,2.3,8.4,0l40.4-40.4c2.3-2.3,2.3-6.1,0-8.4
		l-0.2-0.2C319.4,61.7,315.6,61.7,313.3,64z"/>
	<circle class="st4" cx="206.5" cy="179.5" r="105.5"/>
	<circle class="st5" cx="155.5" cy="139.5" r="23.5"/>
	<path class="st6" d="M317.1,109.2l-40.4-40.4c-2.3-2.3-6.1-2.3-8.4,0l-12.7,12.7c-2.3,2.3-2.3,6.1,0,8.4l40.4,40.4
		c2.3,2.3,6.1,2.3,8.4,0l12.7-12.7C319.4,115.3,319.4,111.6,317.1,109.2z"/>
</g>
<g id="Layer_4">
	<g>
		<path class="st7" d="M116.8,307.1c-18.1,0-32.8-14.7-32.8-32.8V51.8c0-18.1,14.7-32.8,32.8-32.8h222.5c18.1,0,32.8,14.7,32.8,32.8
			v222.5c0,18.1-14.7,32.8-32.8,32.8H116.8z"/>
		<path class="st8" d="M339.2,27.6c13.4,0,24.3,10.9,24.3,24.3v222.5c0,13.4-10.9,24.3-24.3,24.3H116.8c-13.4,0-24.3-10.9-24.3-24.3
			V51.8c0-13.4,10.9-24.3,24.3-24.3H339.2 M339.2,10.6H116.8c-22.8,0-41.3,18.5-41.3,41.3v222.5c0,22.8,18.5,41.3,41.3,41.3h222.5
			c22.8,0,41.3-18.5,41.3-41.3V51.8C380.5,29.1,362,10.6,339.2,10.6L339.2,10.6z"/>
	</g>
</g>
<g id="Layer_3">
	<g>
		<g>
			<rect x="237" y="104.1" class="st8" width="85.1" height="12.3"/>
		</g>
		<g>
			<polygon class="st8" points="180.1,67.7 167.8,67.7 167.8,104.1 131.4,104.1 131.4,116.5 167.8,116.5 167.8,152.8 180.1,152.8 
				180.1,116.5 216.5,116.5 216.5,104.1 180.1,104.1 			"/>
		</g>
		<g>
			<polygon class="st8" points="205.4,173.5 174,205 142.5,173.5 133.8,182.3 165.2,213.7 133.8,245.2 142.5,253.9 174,222.4 
				205.4,253.9 214.1,245.2 182.7,213.7 214.1,182.3 			"/>
		</g>
		<g>
			
				<rect x="227.6" y="207.5" transform="matrix(0.7071 -0.7071 0.7071 0.7071 -69.6145 259.3533)" class="st8" width="101.3" height="12.3"/>
		</g>
		<g>
			<path class="st8" d="M255.7,210.2c11.6,0,21-9.4,21-21s-9.4-21-21-21c-11.6,0-21,9.4-21,21S244.1,210.2,255.7,210.2z
				 M255.7,176.2c7.2,0,13.1,5.9,13.1,13.1c0,7.2-5.9,13.1-13.1,13.1c-7.2,0-13.1-5.9-13.1-13.1C242.6,182,248.5,176.2,255.7,176.2z
				"/>
		</g>
		<g>
			<path class="st8" d="M302.9,216.2c-11.6,0-21,9.4-21,21s9.4,21,21,21c11.6,0,21-9.4,21-21S314.4,216.2,302.9,216.2z M302.9,250.3
				c-7.2,0-13.1-5.9-13.1-13.1s5.9-13.1,13.1-13.1c7.2,0,13.1,5.9,13.1,13.1S310.1,250.3,302.9,250.3z"/>
		</g>
	</g>
</g>
</svg>
