<?xml version="1.0" encoding="utf-8"?>
<!-- Generator: Adobe Illustrator 23.0.1, SVG Export Plug-In . SVG Version: 6.00 Build 0)  -->
<svg version="1.1" id="Layer_1" xmlns="http://www.w3.org/2000/svg" xmlns:xlink="http://www.w3.org/1999/xlink" x="0px" y="0px"
	 viewBox="0 0 461 315" style="enable-background:new 0 0 461 315;" xml:space="preserve">
<style type="text/css">
	.st0{fill:none;stroke:#694C5A;stroke-width:33;stroke-miterlimit:10;}
	.st1{fill:#43A5D6;}
	.st2{fill:#008DC8;}
	.st3{fill:#CFCFCF;}
	.st4{fill:#B1B1B1;}
	.st5{fill:#503949;}
	.st6{fill:#3E2C3B;}
	.st7{fill:#C1E5FA;}
	.st8{fill:#E3F3FD;}
	.st9{fill:#ECECEC;}
	.st10{fill:#694C5A;}
</style>
<path class="st0" d="M385.7,279.9c0.2-0.4,0.4-0.7,0.5-1.1c0-0.1,0-0.1,0.1-0.2c0.1-0.4,0.2-0.7,0.3-1.1c0,0,0-0.1,0-0.1
	c0.1-0.4,0.1-0.8,0.2-1.2c0-0.1,0-0.1,0-0.2c0-0.8,0-1.7-0.2-2.5c0,0,0-0.1,0-0.1c-0.4-1.7-1.4-3.3-2.9-4.6l-90-75
	c-1.5-1.2-3.6-1-4.9,0.4l-0.1,0.1l-8.6-7.2l-0.1,0c1.1-1.8,0.8-4.2-0.9-5.6L266.2,171c24.4-41.2,16.1-95.1-21.9-126.8
	C202.3,9.2,139.7,14.9,104.6,57c-30.9,37-30.1,89.9-0.8,126c0.1,0.1,0.1,0.1,0.2,0.2c0.6,0.7,1.2,1.4,1.8,2.1
	c0.1,0.1,0.2,0.2,0.3,0.3c0.6,0.7,1.3,1.5,2,2.2c0,0,0,0,0,0c0.7,0.7,1.4,1.5,2.1,2.2c0.1,0.1,0.3,0.3,0.4,0.4
	c0.6,0.6,1.1,1.1,1.7,1.7c0.2,0.2,0.4,0.4,0.7,0.6c0.5,0.5,1,1,1.6,1.4c0.2,0.2,0.4,0.4,0.7,0.6c0.7,0.6,1.5,1.3,2.2,1.9
	c0,0,0,0,0,0c2.9,2.4,5.9,4.6,9,6.6c37.2,24.5,86.3,21,119.6-8l12.9,10.7c0.2,0.2,0.5,0.3,0.7,0.5c0.1,0.1,0.2,0.1,0.3,0.1
	c0.1,0.1,0.3,0.1,0.5,0.2c0.1,0,0.3,0.1,0.4,0.1c0.1,0,0.2,0.1,0.4,0.1c0.2,0,0.3,0,0.5,0c0.1,0,0.2,0,0.3,0c0.2,0,0.4,0,0.6-0.1
	c0.1,0,0.1,0,0.2,0c0.2,0,0.4-0.1,0.6-0.2c0,0,0.1,0,0.1,0c0.2-0.1,0.4-0.2,0.6-0.3c0,0,0,0,0,0c0.2-0.1,0.4-0.3,0.6-0.5l0,0.1
	l8.6,7.2l-0.2,0.3c-0.8,0.9-1,2.1-0.7,3.2c0.2,0.6,0.6,1.2,1.1,1.7l90,75c1.4,1.1,3,1.8,4.7,2c0.3,0,0.6,0,0.8,0c0.5,0,1,0,1.5-0.1
	c1.9-0.3,3.8-1.3,5.2-3l6.3-7.5l2.9-3.5c0,0,0,0,0,0c0.3-0.3,0.5-0.7,0.7-1C385.6,280.1,385.6,280,385.7,279.9z"/>
<g>
	<path class="st1" d="M383.7,269l-90-75c-1.5-1.2-3.6-1-4.9,0.4l-0.1,0.1l-8.6-7.2l-0.1,0c1.1-1.8,0.8-4.2-0.9-5.6L266.2,171
		c24.4-41.2,16.1-95.1-21.9-126.8C202.2,9.2,139.7,14.9,104.6,57c-35.1,42.1-29.4,104.7,12.7,139.7c38,31.6,92.5,30.1,128.6-1.4
		l12.9,10.7c1.7,1.4,4.1,1.3,5.7-0.2l0,0.1l8.6,7.2l0,0l-0.2,0.3c-1.2,1.5-1,3.6,0.4,4.9l90,75c3.7,3.1,9.1,2.6,12.2-1.1l9.2-11
		C387.9,277.5,387.4,272,383.7,269z"/>
	<path class="st2" d="M236.1,54.2c-23.5-19.5-54.3-24.5-81.4-15.9c-15.2,4.8-29.2,13.9-40.2,27C95,88.7,90,119.5,98.6,146.6
		c4.8,15.2,13.9,29.2,27,40.2c23.5,19.5,54.3,24.5,81.4,15.9c15.2-4.8,29.2-13.9,40.2-27c19.5-23.5,24.5-54.3,15.9-81.4
		C258.3,79.2,249.2,65.1,236.1,54.2z"/>
	
		<rect x="264.5" y="194.6" transform="matrix(0.64 -0.7684 0.7684 0.64 -54.2879 284.6703)" class="st3" width="24.2" height="11.2"/>
	
		<rect x="266.9" y="199.8" transform="matrix(0.64 -0.7684 0.7684 0.64 -59.7575 283.2374)" class="st4" width="10.9" height="11.2"/>
	<path class="st5" d="M384.8,281.2l-9.2,11c-3.1,3.7-8.5,4.2-12.2,1.1l-90-75c-1.5-1.2-1.7-3.4-0.4-4.9l15.8-19
		c1.2-1.5,3.4-1.7,4.9-0.4l90,75C387.4,272,387.9,277.5,384.8,281.2z"/>
	<path class="st6" d="M377,281.3c-3.1,3.7-8.5,4.2-12.2,1.1L276.7,209l-3.7,4.5c-1.2,1.5-1,3.6,0.4,4.9l90,75
		c3.7,3.1,9.1,2.6,12.2-1.1l9.2-11c2.4-2.9,2.6-7,0.7-10L377,281.3z"/>
	<path class="st2" d="M251.3,182.7l-9.4,9.4c-36,29.1-87.3,32.4-127.1-0.3c-11.2-9.2-20.4-23.2-26.4-35.5
		c5.9,15.2,15.6,29.2,29,40.3c38,31.6,92.5,30.1,128.6-1.4l12.9,10.7c1.8,1.5,4.6,1.3,6.1-0.6l5.6-6.8L251.3,182.7z"/>
	
		<ellipse transform="matrix(0.7071 -0.7071 0.7071 0.7071 -32.2167 163.1694)" class="st7" cx="180.9" cy="120.5" rx="81.5" ry="81.5"/>
	
		<ellipse transform="matrix(0.9262 -0.3771 0.3771 0.9262 -19.4429 68.4361)" class="st8" cx="165.1" cy="83.9" rx="52.1" ry="37.1"/>
	<path class="st9" d="M285.2,196.4L285.2,196.4c-0.7,0.9-2.1,1-2.9,0.3l-3.5-2.9c-0.9-0.7-1-2.1-0.3-2.9c0.7-0.9,2.1-1,2.9-0.3
		l3.5,2.9C285.8,194.1,286,195.5,285.2,196.4z"/>
	<path class="st10" d="M377.2,271.1L377.2,271.1c-1.2,1.5-3.5,1.7-5,0.5l-80.5-67c-1.5-1.2-1.7-3.5-0.5-5c1.2-1.5,3.5-1.7,5-0.5
		l80.5,67C378.2,267.3,378.4,269.6,377.2,271.1z"/>
</g>
</svg>
