<?xml version="1.0" encoding="utf-8"?>
<!-- Generator: Adobe Illustrator 23.0.1, SVG Export Plug-In . SVG Version: 6.00 Build 0)  -->
<svg version="1.1" xmlns="http://www.w3.org/2000/svg" xmlns:xlink="http://www.w3.org/1999/xlink" x="0px" y="0px"
	 viewBox="0 0 500 500" style="enable-background:new 0 0 500 500;" xml:space="preserve">
<style type="text/css">
	.st0{display:none;}
	.st1{display:inline;fill:#D11973;}
	.st2{display:inline;}
	.st3{fill:#FFFFFF;}
</style>
<g id="Layer_1" class="st0">
	<path class="st1" d="M389.9,500H110.1C49.3,500,0,450.7,0,389.9V110.1C0,49.3,49.3,0,110.1,0h279.8C450.7,0,500,49.3,500,110.1
		v279.8C500,450.7,450.7,500,389.9,500z"/>
	<g class="st2">
		<path class="st3" d="M277,317.2c-0.8,8.5-6.5,14.6-15,14.6h-21.6c-7.7,0-13.1-6.2-14.3-14.6c-0.8-5.4-1.2-10-1.2-14.6
			c0-18.9,5.8-32.7,21.2-57.8l11.2-18.1c10.8-17.7,12.7-27.4,12.7-49.3V160c0-7.7-1.9-11.9-5-15.4c-3.5-3.9-8.1-6.2-13.5-6.2
			c-5.4,0-9.2,1.9-12.7,5c-3.5,3.5-5.8,8.1-5.8,15.8v18.9c0,8.5-6.5,15-15,15h-23.5c-8.5,0-15-6.5-15-15v-19.3
			c0-25,8.5-42.4,23.5-54.7c13.5-10.8,29.3-17.3,48.2-17.3c18.9,0,35.4,6.5,48.9,17.3c15.4,12.3,23.9,29.7,23.9,56.6v17.7
			c0,26.2-2.3,43.5-18.9,71.7l-16.2,27.7c-8.9,15-10.4,27.4-11.6,35.8L277,317.2z M238.9,407.3c-8.5,0-15-6.5-15-15v-25.4
			c0-8.5,6.5-15,15-15h25.4c8.5,0,15,6.5,15,15v25.4c0,8.5-6.6,15-15,15H238.9z"/>
	</g>
</g>
<g id="Layer_2">
	<circle cx="250" cy="161.6" r="139"/>
	<path d="M493,501.4c0-134.2-108.8-243-243-243S7,367.2,7,501.4H493z"/>
</g>
</svg>
