<?xml version="1.0" encoding="utf-8"?>
<!-- Generator: Adobe Illustrator 23.0.1, SVG Export Plug-In . SVG Version: 6.00 Build 0)  -->
<svg version="1.1" id="Layer_1" xmlns="http://www.w3.org/2000/svg" xmlns:xlink="http://www.w3.org/1999/xlink" x="0px" y="0px"
	 viewBox="0 0 87.8 83.3" style="enable-background:new 0 0 87.8 83.3;" xml:space="preserve">
<style type="text/css">
	.st0{fill:#FFFFFF;}
</style>
<g>
	<path class="st0" d="M53.3,70.6c-4.3-1.5-8.1-4.7-11.6-9.5c-3.3,4.1-6.8,7.3-10.5,9.5c-2.9-1-5.8-2.6-8.8-4.8
		c-2.9-2.2-5.4-5.1-7.3-8.6V29.5c0-1.8-0.3-3.3-0.9-4.6c-0.6-1.3-1.5-2.7-2.6-4.3c-0.2,0.2-0.5,0.5-0.9,0.8
		c-0.4,0.3-0.8,0.5-1.2,0.8c-0.4,0.2-0.6,0.4-0.7,0.5l-1.3-2.2c4.4-3.6,7.7-6.5,10-8.6c2.4,0.9,4.5,2.4,6.3,4.5
		c1.9,2.1,3.1,4.3,3.6,6.4v31.2c1.1,3,3.5,5.9,7.2,8.8c1.9-1.8,3.2-3.5,3.9-5.1l0.5-0.7V29.5c0-1.8-0.3-3.3-0.9-4.6
		c-0.6-1.3-1.5-2.7-2.6-4.3c-0.2,0.2-0.5,0.5-0.9,0.8c-0.4,0.3-0.8,0.5-1.2,0.8c-0.4,0.2-0.6,0.4-0.7,0.5l-1.3-2.2
		c4.4-3.6,7.7-6.5,10-8.6c2.4,0.9,4.5,2.4,6.3,4.5c1.9,2.1,3.1,4.3,3.6,6.4v31.2c0,2.7,2.3,5.8,6.8,9.2c2.8-2.3,4.3-4.9,4.3-7.8
		V29.8c0-2.9-1-6-3-9.1l-2.9,2.1l-1.3-2.2c4.3-3.4,7.7-6.3,10.2-8.6c4.2,1.1,7.1,4.4,8.5,9.7c1.5-1.2,3.2-2.4,5.2-3.4l2.2,2.3
		c-2.9,1.9-5.1,3.7-6.6,5.5v26.5C65.4,61.3,58.3,67.4,53.3,70.6z"/>
</g>
</svg>
