<?xml version="1.0" encoding="utf-8"?>
<!-- Generator: Adobe Illustrator 23.0.1, SVG Export Plug-In . SVG Version: 6.00 Build 0)  -->
<svg version="1.1" id="Layer_1" xmlns="http://www.w3.org/2000/svg" xmlns:xlink="http://www.w3.org/1999/xlink" x="0px" y="0px"
	 viewBox="0 0 500 500" style="enable-background:new 0 0 500 500;" xml:space="preserve">
<style type="text/css">
	.st0{fill:#231F20;}
	.st1{fill:#4CAE4E;}
	.st2{fill:#929497;}
	.st3{fill:#2196F3;}
	.st4{fill:#FFFFFF;}
</style>
<path class="st0" d="M87.6,99.1H20.4c-5.5,0-9.9-4.4-9.9-9.9V22.1c0-5.5,4.4-9.9,9.9-9.9h67.2c5.5,0,9.9,4.4,9.9,9.9v67.2
	C97.5,94.7,93,99.1,87.6,99.1z"/>
<path class="st1" d="M185.6,99.1h-67.2c-5.5,0-9.9-4.4-9.9-9.9V22.1c0-5.5,4.4-9.9,9.9-9.9h67.2c5.5,0,9.9,4.4,9.9,9.9v67.2
	C195.5,94.7,191,99.1,185.6,99.1z"/>
<path class="st1" d="M283.6,99.1h-67.2c-5.5,0-9.9-4.4-9.9-9.9V22.1c0-5.5,4.4-9.9,9.9-9.9h67.2c5.5,0,9.9,4.4,9.9,9.9v67.2
	C293.5,94.7,289.1,99.1,283.6,99.1z"/>
<path class="st2" d="M381.6,99.1h-67.2c-5.5,0-9.9-4.4-9.9-9.9V22.1c0-5.5,4.4-9.9,9.9-9.9h67.2c5.5,0,9.9,4.4,9.9,9.9v67.2
	C391.5,94.7,387.1,99.1,381.6,99.1z"/>
<path class="st0" d="M479.6,99.1h-67.2c-5.5,0-9.9-4.4-9.9-9.9V22.1c0-5.5,4.4-9.9,9.9-9.9h67.2c5.5,0,9.9,4.4,9.9,9.9v67.2
	C489.5,94.7,485.1,99.1,479.6,99.1z"/>
<path class="st2" d="M87.6,196.3H20.4c-5.5,0-9.9-4.4-9.9-9.9v-67.2c0-5.5,4.4-9.9,9.9-9.9h67.2c5.5,0,9.9,4.4,9.9,9.9v67.2
	C97.5,191.9,93,196.3,87.6,196.3z"/>
<path class="st1" d="M185.6,196.3h-67.2c-5.5,0-9.9-4.4-9.9-9.9v-67.2c0-5.5,4.4-9.9,9.9-9.9h67.2c5.5,0,9.9,4.4,9.9,9.9v67.2
	C195.5,191.9,191,196.3,185.6,196.3z"/>
<path class="st2" d="M283.6,196.3h-67.2c-5.5,0-9.9-4.4-9.9-9.9v-67.2c0-5.5,4.4-9.9,9.9-9.9h67.2c5.5,0,9.9,4.4,9.9,9.9v67.2
	C293.5,191.9,289.1,196.3,283.6,196.3z"/>
<path class="st0" d="M381.6,196.3h-67.2c-5.5,0-9.9-4.4-9.9-9.9v-67.2c0-5.5,4.4-9.9,9.9-9.9h67.2c5.5,0,9.9,4.4,9.9,9.9v67.2
	C391.5,191.9,387.1,196.3,381.6,196.3z"/>
<path class="st2" d="M479.6,196.3h-67.2c-5.5,0-9.9-4.4-9.9-9.9v-67.2c0-5.5,4.4-9.9,9.9-9.9h67.2c5.5,0,9.9,4.4,9.9,9.9v67.2
	C489.5,191.9,485.1,196.3,479.6,196.3z"/>
<path class="st1" d="M87.6,293.5H20.4c-5.5,0-9.9-4.4-9.9-9.9v-67.2c0-5.5,4.4-9.9,9.9-9.9h67.2c5.5,0,9.9,4.4,9.9,9.9v67.2
	C97.5,289.1,93,293.5,87.6,293.5z"/>
<path class="st1" d="M185.6,293.5h-67.2c-5.5,0-9.9-4.4-9.9-9.9v-67.2c0-5.5,4.4-9.9,9.9-9.9h67.2c5.5,0,9.9,4.4,9.9,9.9v67.2
	C195.5,289.1,191,293.5,185.6,293.5z"/>
<path class="st2" d="M283.6,293.5h-67.2c-5.5,0-9.9-4.4-9.9-9.9v-67.2c0-5.5,4.4-9.9,9.9-9.9h67.2c5.5,0,9.9,4.4,9.9,9.9v67.2
	C293.5,289.1,289.1,293.5,283.6,293.5z"/>
<path class="st3" d="M381.6,293.5h-67.2c-5.5,0-9.9-4.4-9.9-9.9v-67.2c0-5.5,4.4-9.9,9.9-9.9h67.2c5.5,0,9.9,4.4,9.9,9.9v67.2
	C391.5,289.1,387.1,293.5,381.6,293.5z"/>
<path class="st3" d="M479.6,293.5h-67.2c-5.5,0-9.9-4.4-9.9-9.9v-67.2c0-5.5,4.4-9.9,9.9-9.9h67.2c5.5,0,9.9,4.4,9.9,9.9v67.2
	C489.5,289.1,485.1,293.5,479.6,293.5z"/>
<path class="st1" d="M87.6,390.7H20.4c-5.5,0-9.9-4.4-9.9-9.9v-67.2c0-5.5,4.4-9.9,9.9-9.9h67.2c5.5,0,9.9,4.4,9.9,9.9v67.2
	C97.5,386.2,93,390.7,87.6,390.7z"/>
<path class="st0" d="M185.6,390.7h-67.2c-5.5,0-9.9-4.4-9.9-9.9v-67.2c0-5.5,4.4-9.9,9.9-9.9h67.2c5.5,0,9.9,4.4,9.9,9.9v67.2
	C195.5,386.2,191,390.7,185.6,390.7z"/>
<path class="st2" d="M283.6,390.7h-67.2c-5.5,0-9.9-4.4-9.9-9.9v-67.2c0-5.5,4.4-9.9,9.9-9.9h67.2c5.5,0,9.9,4.4,9.9,9.9v67.2
	C293.5,386.2,289.1,390.7,283.6,390.7z"/>
<path class="st3" d="M381.6,390.7h-67.2c-5.5,0-9.9-4.4-9.9-9.9v-67.2c0-5.5,4.4-9.9,9.9-9.9h67.2c5.5,0,9.9,4.4,9.9,9.9v67.2
	C391.5,386.2,387.1,390.7,381.6,390.7z"/>
<path class="st3" d="M479.6,390.7h-67.2c-5.5,0-9.9-4.4-9.9-9.9v-67.2c0-5.5,4.4-9.9,9.9-9.9h67.2c5.5,0,9.9,4.4,9.9,9.9v67.2
	C489.5,386.2,485.1,390.7,479.6,390.7z"/>
<path class="st0" d="M87.6,487.8H20.4c-5.5,0-9.9-4.4-9.9-9.9v-67.2c0-5.5,4.4-9.9,9.9-9.9h67.2c5.5,0,9.9,4.4,9.9,9.9v67.2
	C97.5,483.4,93,487.8,87.6,487.8z"/>
<path class="st2" d="M185.6,487.8h-67.2c-5.5,0-9.9-4.4-9.9-9.9v-67.2c0-5.5,4.4-9.9,9.9-9.9h67.2c5.5,0,9.9,4.4,9.9,9.9v67.2
	C195.5,483.4,191,487.8,185.6,487.8z"/>
<path class="st3" d="M283.6,487.8h-67.2c-5.5,0-9.9-4.4-9.9-9.9v-67.2c0-5.5,4.4-9.9,9.9-9.9h67.2c5.5,0,9.9,4.4,9.9,9.9v67.2
	C293.5,483.4,289.1,487.8,283.6,487.8z"/>
<path class="st3" d="M381.6,487.8h-67.2c-5.5,0-9.9-4.4-9.9-9.9v-67.2c0-5.5,4.4-9.9,9.9-9.9h67.2c5.5,0,9.9,4.4,9.9,9.9v67.2
	C391.5,483.4,387.1,487.8,381.6,487.8z"/>
<path class="st0" d="M479.6,487.8h-67.2c-5.5,0-9.9-4.4-9.9-9.9v-67.2c0-5.5,4.4-9.9,9.9-9.9h67.2c5.5,0,9.9,4.4,9.9,9.9v67.2
	C489.5,483.4,485.1,487.8,479.6,487.8z"/>
<g>
	<path class="st4" d="M72.2,363.2h-7.5l-3-7.8H48l-2.8,7.8h-7.3L51.2,329h7.3L72.2,363.2z M59.4,349.7L54.7,337l-4.6,12.7H59.4z"/>
</g>
<g>
	<path class="st4" d="M464.2,363.2h-7.5l-3-7.8H440l-2.8,7.8h-7.3l13.3-34.2h7.3L464.2,363.2z M451.5,349.7l-4.7-12.7l-4.6,12.7
		H451.5z"/>
</g>
<g>
	<path class="st4" d="M40.5,266.3v-34.2h6.7l14,22.8v-22.8h6.4v34.2h-6.9L46.9,244v22.3H40.5z"/>
</g>
<g>
	<path class="st4" d="M432.2,266.3v-34.2h6.7l14,22.8v-22.8h6.4v34.2h-6.9L438.6,244v22.3H432.2z"/>
</g>
<g>
	<path class="st4" d="M137.6,255.2l6.7-0.7c0.4,2.3,1.2,3.9,2.5,5c1.2,1.1,2.9,1.6,5,1.6c2.2,0,3.9-0.5,5-1.4c1.1-0.9,1.7-2,1.7-3.3
		c0-0.8-0.2-1.5-0.7-2.1c-0.5-0.6-1.3-1.1-2.5-1.5c-0.8-0.3-2.7-0.8-5.5-1.5c-3.7-0.9-6.3-2-7.8-3.4c-2.1-1.9-3.1-4.2-3.1-6.9
		c0-1.7,0.5-3.4,1.5-4.9c1-1.5,2.4-2.7,4.3-3.5s4.1-1.2,6.7-1.2c4.3,0,7.5,0.9,9.7,2.8s3.3,4.4,3.4,7.5l-6.9,0.3
		c-0.3-1.8-0.9-3-1.9-3.8s-2.4-1.2-4.4-1.2c-2,0-3.6,0.4-4.7,1.2c-0.7,0.5-1.1,1.2-1.1,2.1c0,0.8,0.3,1.5,1,2.1
		c0.9,0.7,3,1.5,6.3,2.3c3.4,0.8,5.8,1.6,7.5,2.5c1.6,0.8,2.9,2,3.8,3.5c0.9,1.5,1.4,3.3,1.4,5.4c0,2-0.5,3.8-1.6,5.5
		c-1.1,1.7-2.6,3-4.6,3.8c-2,0.8-4.5,1.2-7.4,1.2c-4.3,0-7.6-1-10-3C139.4,261.9,138.1,259,137.6,255.2z"/>
</g>
<g>
	<path class="st4" d="M334.9,255.2l6.7-0.7c0.4,2.3,1.2,3.9,2.5,5c1.2,1.1,2.9,1.6,5,1.6c2.2,0,3.9-0.5,5-1.4c1.1-0.9,1.7-2,1.7-3.3
		c0-0.8-0.2-1.5-0.7-2.1c-0.5-0.6-1.3-1.1-2.5-1.5c-0.8-0.3-2.7-0.8-5.5-1.5c-3.7-0.9-6.3-2-7.8-3.4c-2.1-1.9-3.1-4.2-3.1-6.9
		c0-1.7,0.5-3.4,1.5-4.9c1-1.5,2.4-2.7,4.3-3.5s4.1-1.2,6.7-1.2c4.3,0,7.5,0.9,9.7,2.8c2.2,1.9,3.3,4.4,3.4,7.5l-6.9,0.3
		c-0.3-1.8-0.9-3-1.9-3.8c-1-0.8-2.4-1.2-4.4-1.2c-2,0-3.6,0.4-4.7,1.2c-0.7,0.5-1.1,1.2-1.1,2.1c0,0.8,0.3,1.5,1,2.1
		c0.9,0.7,3,1.5,6.3,2.3s5.8,1.6,7.5,2.5c1.6,0.8,2.9,2,3.8,3.5c0.9,1.5,1.4,3.3,1.4,5.4c0,2-0.5,3.8-1.6,5.5
		c-1.1,1.7-2.6,3-4.6,3.8c-2,0.8-4.5,1.2-7.4,1.2c-4.3,0-7.6-1-10-3C336.7,261.9,335.3,259,334.9,255.2z"/>
</g>
<g>
	<path class="st4" d="M139.6,170.1l-8.2-34.2h7.1l5.2,23.5l6.3-23.5h8.2l6,23.9l5.2-23.9h7l-8.3,34.2h-7.3l-6.8-25.6l-6.8,25.6
		H139.6z"/>
</g>
<g>
	<path class="st4" d="M334.8,363.2l-8.2-34.2h7.1l5.2,23.5l6.3-23.5h8.2l6,23.9l5.2-23.9h7l-8.3,34.2h-7.3l-6.8-25.6l-6.8,25.6
		H334.8z"/>
</g>
<g>
	<path class="st4" d="M139.4,72.4V38.2h25.4V44h-18.4v7.6h17.2v5.8h-17.2v9.3h19.1v5.8H139.4z"/>
</g>
<g>
	<path class="st4" d="M336.3,461.6v-34.2h25.4v5.8h-18.4v7.6h17.2v5.8h-17.2v9.3h19.1v5.8H336.3z"/>
</g>
<g>
	<path class="st4" d="M238.2,72.4V38.2h14.5c3.7,0,6.3,0.3,8,0.9c1.7,0.6,3,1.7,4,3.3c1,1.6,1.5,3.4,1.5,5.4c0,2.6-0.8,4.7-2.3,6.4
		c-1.5,1.7-3.8,2.7-6.8,3.2c1.5,0.9,2.7,1.8,3.7,2.9c1,1,2.3,2.9,3.9,5.6l4.2,6.7h-8.3l-5-7.4c-1.8-2.7-3-4.3-3.6-5
		c-0.7-0.7-1.3-1.2-2.1-1.4c-0.7-0.3-1.9-0.4-3.5-0.4h-1.4v14.3H238.2z M245.1,52.6h5.1c3.3,0,5.4-0.1,6.2-0.4
		c0.8-0.3,1.5-0.8,1.9-1.4s0.7-1.5,0.7-2.6c0-1.2-0.3-2.1-0.9-2.8c-0.6-0.7-1.5-1.2-2.6-1.3c-0.6-0.1-2.2-0.1-5-0.1h-5.4V52.6z"/>
</g>
<g>
	<path class="st4" d="M236.3,461.7v-34.2h14.5c3.7,0,6.3,0.3,8,0.9s3,1.7,4,3.3s1.5,3.4,1.5,5.4c0,2.6-0.8,4.7-2.3,6.4
		c-1.5,1.7-3.8,2.7-6.8,3.2c1.5,0.9,2.7,1.8,3.7,2.9c1,1,2.3,2.9,3.9,5.6l4.2,6.7h-8.3l-5-7.4c-1.8-2.7-3-4.3-3.6-5
		c-0.7-0.7-1.3-1.2-2.1-1.4s-1.9-0.4-3.5-0.4h-1.4v14.3H236.3z M243.2,442h5.1c3.3,0,5.4-0.1,6.2-0.4c0.8-0.3,1.5-0.8,1.9-1.4
		s0.7-1.5,0.7-2.6c0-1.2-0.3-2.1-0.9-2.8c-0.6-0.7-1.5-1.2-2.6-1.3c-0.6-0.1-2.2-0.1-5-0.1h-5.4V442z"/>
</g>
</svg>
