<?xml version="1.0" encoding="utf-8"?>
<!-- Generator: Adobe Illustrator 23.0.1, SVG Export Plug-In . SVG Version: 6.00 Build 0)  -->
<svg version="1.1" xmlns="http://www.w3.org/2000/svg" xmlns:xlink="http://www.w3.org/1999/xlink" x="0px" y="0px"
	 viewBox="0 0 500 500" style="enable-background:new 0 0 500 500;" xml:space="preserve">
<style type="text/css">
	.st0{fill:#E63947;}
	.st1{display:none;}
	.st2{display:inline;fill:#E63947;}
	.st3{display:inline;}
</style>
<g id="Layer_1">
	<rect class="st0" width="500" height="500"/>
</g>
<g id="Layer_3" class="st1">
	<path class="st2" d="M384.2,500H115.8C51.8,500,0,448.2,0,384.2V115.8C0,51.8,51.8,0,115.8,0h268.4C448.2,0,500,51.8,500,115.8
		v268.4C500,448.2,448.2,500,384.2,500z"/>
</g>
<g id="Layer_2" class="st1">
	<circle class="st2" cx="250" cy="250" r="250"/>
</g>
<g id="Layer_4" class="st1">
	<polygon class="st2" points="353.5,0 146.5,0 0,146.5 0,353.5 146.5,500 353.5,500 500,353.5 500,146.5 	"/>
</g>
<g id="Layer_5" class="st1">
	<g id="Layer_3_1_" class="st3">
		<polygon class="st0" points="353.6,0 500,146.4 500,500 146.4,500 0,353.6 0,0 		"/>
	</g>
</g>
</svg>
