<?xml version="1.0" encoding="utf-8"?>
<!-- Generator: Adobe Illustrator 23.0.1, SVG Export Plug-In . SVG Version: 6.00 Build 0)  -->
<svg version="1.1" xmlns="http://www.w3.org/2000/svg" xmlns:xlink="http://www.w3.org/1999/xlink" x="0px" y="0px"
	 viewBox="0 0 500 500" style="enable-background:new 0 0 500 500;" xml:space="preserve">
<style type="text/css">
	.st0{display:none;}
	.st1{display:inline;fill:#939598;}
	.st2{fill:#939598;}
</style>
<g id="Layer_1" class="st0">
	<rect class="st1" width="500" height="500"/>
</g>
<g id="Layer_1_copy">
	<path class="st2" d="M387.9,500H112.1C50.2,500,0,449.8,0,387.9V112.1C0,50.2,50.2,0,112.1,0h275.9C449.8,0,500,50.2,500,112.1
		v275.9C500,449.8,449.8,500,387.9,500z"/>
</g>
<g id="Layer_2" class="st0">
	<polygon class="st1" points="146.4,0 0,146.4 0,500 353.6,500 500,353.6 500,0 	"/>
</g>
<g id="Layer_3" class="st0">
	<polygon class="st1" points="353.6,0 500,146.4 500,500 146.4,500 0,353.6 0,0 	"/>
</g>
<g id="Layer_3_copy" class="st0">
	<polygon class="st1" points="146.4,0 0,146.4 0,353.6 146.4,500 353.6,500 500,353.6 500,146.4 353.6,0 	"/>
</g>
</svg>
