<?xml version="1.0" encoding="utf-8"?>
<!-- Generator: Adobe Illustrator 23.0.1, SVG Export Plug-In . SVG Version: 6.00 Build 0)  -->
<svg version="1.1" id="Layer_1" xmlns="http://www.w3.org/2000/svg" xmlns:xlink="http://www.w3.org/1999/xlink" x="0px" y="0px"
	 viewBox="0 0 180 252" style="enable-background:new 0 0 180 252;" xml:space="preserve">
<style type="text/css">
	.st0{fill:#FFCC44;}
	.st1{fill:#FF0000;}
	.st2{fill:#4444FF;}
	.st3{fill:none;stroke:#4444FF;stroke-width:6;stroke-linecap:round;stroke-linejoin:round;}
	.st4{fill:#FFFFFF;}
</style>
<symbol  id="J11" viewBox="-69.4 -69.4 138.8 138.8">
	<path class="st0" d="M69.4,0c0,38.3-31.1,69.4-69.4,69.4l0,0c-38.3,0-69.4-31.1-69.4-69.4l0,0c0-38.3,31.1-69.4,69.4-69.4
		S69.4-38.3,69.4,0z"/>
</symbol>
<symbol  id="J12" viewBox="-85.8 -121 171.6 241.9">
	<path class="st1" d="M-51.9,42.1l-33.9,50.8l34.3-9.4l6.2,37.4l21.8-31.2l25,31.2l6.2-31.2l28.1,28.1l9.4-34.3l40.6,9.4L48.9,45.4
		C35.9,58.3,18.3,65.6,0,65.6C-19.9,65.6-38.8,57-51.9,42.1z M28.3-121c-22.4,2.1-45.1,1.1-64.2,42.3c-7.9-29.4-22.1-23.3-36.2-16.8
		c0.3,1,0.4,2,0.4,3c0,2.7-0.9,5.3-2.6,7.4C-63.9-76.6-56-65.3-50-51.8C-37-65.5-18.9-73.2,0-73.3c15.5,0,30.6,5.3,42.8,14.9
		C49.4-66.3,57.1-73,68.9-75c-0.1-0.5-0.1-0.9-0.1-1.4c0-2.5,0.8-4.9,2.3-6.9c-12.4-8.2-27.3-6.8-41.5-7.8
		c-12.2-8.1-5.6-15.9,2.1-23.6C30-116.5,28.8-118.6,28.3-121z"/>
</symbol>
<symbol  id="J13" viewBox="-35.8 -6.2 71.7 12.5">
	<path class="st2" d="M35.8,0c0,3.4-2.8,6.2-6.2,6.2S23.3,3.4,23.3,0s2.8-6.2,6.2-6.2S35.8-3.4,35.8,0z M-23.3,0
		c0,3.4-2.8,6.2-6.2,6.2s-6.2-2.8-6.2-6.2s2.8-6.2,6.2-6.2S-23.3-3.4-23.3,0z"/>
</symbol>
<symbol  id="J14" viewBox="-96.7 -131 193.3 262">
	<path class="st3" d="M-50.5,49.1l-33.9,50.8l34.3-9.4l6.2,37.4L-22,96.8L3,128l6.2-31.2l28.1,28.1l9.4-34.3l40.6,9.4L50.3,52.4
		 M93.7-69.4c0,6.5-5.2,11.7-11.7,11.7c-6.5,0-11.7-5.2-11.7-11.7S75.5-81.1,82-81.1C88.4-81.1,93.7-75.9,93.7-69.4z M52.9-116.3
		c0,6.5-5.2,11.7-11.7,11.7l0,0c-6.5,0-11.7-5.2-11.7-11.7l0,0c0-6.5,5.2-11.7,11.7-11.7l0,0C47.7-128,52.9-122.8,52.9-116.3
		L52.9-116.3z M-70.3-85.6c0,6.5-5.2,11.7-11.7,11.7s-11.7-5.2-11.7-11.7s5.2-11.7,11.7-11.7S-70.3-92-70.3-85.6z M44.2-51.4
		c6.6-7.9,14.3-14.6,26.1-16.6c-0.1-0.5-0.1-0.9-0.1-1.4c0-2.5,0.8-4.9,2.3-6.9c-12.4-8.2-27.3-6.8-41.5-7.8
		c-12.2-8.1-5.6-15.9,2.1-23.6c-1.7-1.6-2.9-3.8-3.4-6.1c-22.4,2.1-45.1,1.1-64.2,42.3c-7.9-29.4-22.1-23.3-36.2-16.8
		c0.3,1,0.4,2,0.4,3c0,2.7-0.9,5.3-2.6,7.4c10.4,8.6,18.3,19.9,24.3,33.4 M-39.9,25c8.1,15.3,24,24.9,41.4,25
		c17.3,0,33.3-9.6,41.4-25 M70.9,3.2c0,38.3-31.1,69.4-69.4,69.4l0,0C-36.9,72.6-68,41.5-68,3.2l0,0c0-38.3,31.1-69.4,69.4-69.4
		S70.9-35.1,70.9,3.2z"/>
</symbol>
<path class="st4" d="M9.4,0.4h161.3c5,0,9,4,9,9v233.3c0,5-4,9-9,9H9.4c-5,0-9-4-9-9V9.4C0.4,4.4,4.4,0.4,9.4,0.4z"/>
<use xlink:href="#J11"  width="138.8" height="138.8" x="-69.4" y="-69.4" transform="matrix(1.0955 0 0 1.0955 90 126)" style="overflow:visible;"/>
<use xlink:href="#J12"  width="171.6" height="241.9" x="-85.8" y="-121" transform="matrix(0.8864 0 0 0.8864 90 126)" style="overflow:visible;"/>
<use xlink:href="#J13"  width="71.7" height="12.5" x="-35.8" y="-6.2" transform="matrix(2.1227 0 0 2.1227 90 126)" style="overflow:visible;"/>
<use xlink:href="#J14"  width="193.3" height="262" x="-96.7" y="-131" transform="matrix(0.7867 0 0 0.7867 90 126)" style="overflow:visible;"/>
</svg>
